<svg width="362" height="232" viewBox="0 0 362 232" fill="none" xmlns="http://www.w3.org/2000/svg">
<g clip-path="url(#clip0_7987_1957)">
<path d="M97.1116 58.1624L86.4344 38.5375C86.0998 37.9664 85.9631 37.2895 86.0101 36.6876L86.7862 26.7437L88.0424 26.8418C88.9217 26.9104 89.7271 26.3071 89.7975 25.4042C89.8633 24.5615 89.1665 23.7744 88.2871 23.7058L70.4931 22.317C69.6138 22.2484 68.8083 22.8516 68.7374 23.7606C68.6716 24.6033 69.369 25.3844 70.2484 25.453L71.5046 25.5511L70.7332 35.4347C70.6815 36.0968 70.4461 36.6841 70.0269 37.1964L56.4924 54.9922C55.0133 56.9418 54.7578 59.4048 55.7867 61.6047C56.878 63.8155 58.984 65.2516 61.4964 65.4477L90.4832 67.7101C93.0018 67.9066 95.3616 66.819 96.7199 64.7994C98.1359 62.8509 98.2656 60.3781 97.1116 58.1624ZM69.8799 56.1642C68.5609 56.0613 67.5729 54.9547 67.6721 53.6846C67.7707 52.4206 68.9184 51.4806 70.2374 51.5836C71.5564 51.6865 72.5443 52.7931 72.4457 54.0572C72.3466 55.3272 71.1989 56.2672 69.8799 56.1642ZM80.15 62.301C78.6237 62.1819 77.4789 60.8996 77.5935 59.4309C77.7076 57.9682 79.0376 56.8789 80.5638 56.9981C82.0964 57.1177 83.2412 58.4001 83.127 59.8627C83.0124 61.3314 81.6825 62.4207 80.15 62.301ZM78.7868 49.4045C78.8676 48.3692 79.806 47.6007 80.88 47.6845C81.9604 47.7688 82.7681 48.6736 82.6872 49.7089C82.6069 50.7382 81.6686 51.5068 80.5882 51.4225C79.5142 51.3386 78.7064 50.4338 78.7868 49.4045ZM80.1576 45.1997C76.4327 43.4556 72.7363 43.0459 69.2725 43.6234L72.7281 39.1029C73.4989 38.1335 73.9069 36.9542 74.0055 35.6901L74.7769 25.8065L83.5766 26.4932L82.8052 36.3769C82.7112 37.5808 83.0004 38.8145 83.5439 39.947L87.3559 46.9727C84.9644 46.8466 82.5431 46.2942 80.1576 45.1997Z" fill="#E5D0FF"/>
</g>
<path d="M199.919 82.4395L206.039 85.9623H218.255V125.923C218.255 143.871 201.488 158.477 180.889 158.477C160.29 158.477 143.523 143.871 143.523 125.923V85.9623H155.79L161.885 82.4395H140V125.923C140 145.826 158.336 162 180.889 162C203.442 162 221.778 145.826 221.778 125.923V82.4395H199.919Z" fill="url(#paint0_linear_7987_1957)"/>
<path d="M210.128 88.3281L212.16 89.511H214.732V125.923C214.732 141.943 199.533 154.954 180.889 154.954C162.245 154.954 147.046 141.943 147.046 125.923V89.511H149.695L151.727 88.3281H145.889V125.923C145.889 142.586 161.576 156.137 180.889 156.137C200.202 156.137 215.889 142.586 215.889 125.923V88.3281H210.128Z" fill="url(#paint1_linear_7987_1957)"/>
<path d="M208.2 115.303L206.965 115.432C202.825 113.709 191.51 109.595 181.172 110.958V144.669C181.172 144.669 190.661 140.606 205.422 144.335L208.611 116.152L208.2 115.303Z" fill="url(#paint2_linear_7987_1957)"/>
<path d="M181.172 110.109V143.82C181.172 143.82 190.507 139.757 205.062 143.486L208.2 115.303C208.2 115.303 193.927 108.386 181.172 110.109Z" fill="url(#paint3_linear_7987_1957)"/>
<path d="M181.172 110.108V143.82C181.172 143.82 189.838 138.908 203.339 141.351L206.271 112.86C206.271 112.86 193.027 107.228 181.172 110.108Z" fill="url(#paint4_linear_7987_1957)"/>
<path d="M181.172 110.108V143.82C181.172 143.82 189.195 138.111 201.693 139.32L204.394 110.571C204.394 110.571 192.127 106.148 181.172 110.108Z" fill="url(#paint5_linear_7987_1957)"/>
<path d="M181.172 110.108V143.82C181.172 143.82 188.552 137.289 200.048 137.186L202.516 108.18C202.516 108.18 191.253 105.017 181.172 110.108Z" fill="url(#paint6_linear_7987_1957)"/>
<g style="mix-blend-mode:multiply">
<path d="M182.483 133.304V134.332C184.772 132.764 190.815 129.241 199.225 129.241C199.276 129.241 199.336 129.249 199.405 129.266L199.482 128.392C199.396 128.392 199.31 128.392 199.225 128.392C191.098 128.392 185.158 131.529 182.483 133.304Z" fill="#F8EBCF"/>
<path d="M182.483 128.675V129.703C184.669 128.263 190.301 125.203 198.119 125.203C198.659 125.203 199.199 125.229 199.765 125.255L199.842 124.381C199.259 124.346 198.685 124.329 198.119 124.329C190.558 124.329 185.029 127.081 182.483 128.675Z" fill="#F8EBCF"/>
<path d="M182.483 138.986C184.746 137.34 190.738 133.637 199.07 133.303L199.147 132.429C191.073 132.737 185.158 136.08 182.483 137.906V138.986Z" fill="#F8EBCF"/>
<path d="M194.853 111.935C188.964 111.935 184.644 113.683 182.483 114.789V115.766C184.361 114.737 188.758 112.809 194.853 112.809C196.447 112.809 198.119 112.937 200.768 113.4L200.845 112.526C198.196 112.063 196.473 111.935 194.853 111.935Z" fill="#F8EBCF"/>
<path d="M195.933 116.1C189.504 116.1 184.772 118.157 182.483 119.417V120.394C184.463 119.262 189.272 116.974 195.933 116.974C197.193 116.974 198.53 117.051 200.433 117.308L200.51 116.434C198.582 116.202 197.219 116.1 195.933 116.1Z" fill="#F8EBCF"/>
<path d="M197.013 120.24C190.018 120.24 184.901 122.632 182.483 124.046V125.049C184.566 123.763 189.787 121.115 197.013 121.115C197.965 121.115 198.916 121.166 200.099 121.295L200.176 120.42C198.967 120.292 197.965 120.24 197.013 120.24Z" fill="#F8EBCF"/>
</g>
<path d="M181.172 143.821C182.843 142.921 184.618 142.278 186.444 141.763C188.27 141.249 190.147 140.915 192.05 140.709C192.513 140.658 192.976 140.632 193.464 140.581L194.159 140.529L194.879 140.503L196.293 140.478L197.733 140.529C198.685 140.529 199.61 140.658 200.562 140.735C201.513 140.838 202.439 141.018 203.391 141.146L203.134 141.326C203.596 136.569 204.136 131.838 204.625 127.08L205.422 119.983L206.271 112.86L205.654 120.009L204.985 127.132C204.522 131.863 204.059 136.621 203.571 141.352L203.545 141.583L203.314 141.558C202.388 141.403 201.462 141.249 200.51 141.146C199.585 141.069 198.659 140.915 197.707 140.915L196.293 140.863H194.879L194.184 140.889L193.49 140.915C193.001 140.941 192.538 140.966 192.076 141.018C190.198 141.172 188.321 141.506 186.495 141.943C184.669 142.406 182.869 142.972 181.172 143.821Z" fill="url(#paint7_linear_7987_1957)"/>
<path d="M181.172 143.82C182.638 142.817 184.258 142.02 185.904 141.325C187.575 140.682 189.272 140.142 191.021 139.757C192.77 139.397 194.544 139.088 196.344 139.037C197.244 138.934 198.145 138.985 199.019 138.96C199.919 138.985 200.819 139.062 201.719 139.114L201.488 139.294C201.899 134.511 202.413 129.702 202.851 124.919L203.596 117.745L204.394 110.571L203.828 117.771L203.236 124.971C202.773 129.754 202.388 134.537 201.899 139.32L201.873 139.525H201.668C200.793 139.474 199.919 139.371 199.019 139.371C198.145 139.371 197.244 139.32 196.37 139.397C194.596 139.474 192.821 139.731 191.098 140.04C189.35 140.374 187.652 140.914 185.981 141.505C184.309 142.122 182.663 142.842 181.172 143.82Z" fill="url(#paint8_linear_7987_1957)"/>
<path d="M181.172 143.82C182.458 142.714 183.872 141.763 185.364 140.94C186.855 140.091 188.398 139.397 190.018 138.831C191.613 138.24 193.258 137.777 194.956 137.494C196.627 137.16 198.35 137.057 200.048 136.98L199.842 137.186C200.228 132.326 200.69 127.517 201.102 122.683L201.796 115.431L202.516 108.18L202.028 115.431L201.462 122.708C201.076 127.543 200.69 132.377 200.253 137.211L200.228 137.391H200.048C198.376 137.443 196.679 137.546 195.007 137.854C193.361 138.137 191.715 138.548 190.121 139.088C188.501 139.628 186.958 140.323 185.441 141.094C183.949 141.866 182.483 142.74 181.172 143.82Z" fill="url(#paint9_linear_7987_1957)"/>
<path d="M154.118 115.303L155.353 115.432C159.493 113.709 170.808 109.595 181.172 110.958V144.669C181.172 144.669 171.682 140.606 156.896 144.335L153.707 116.152L154.118 115.303Z" fill="url(#paint10_linear_7987_1957)"/>
<path d="M181.172 110.109V143.82C181.172 143.82 171.811 139.757 157.256 143.486L154.118 115.303C154.118 115.303 168.391 108.386 181.172 110.109Z" fill="url(#paint11_linear_7987_1957)"/>
<path d="M181.172 110.108V143.82C181.172 143.82 172.48 138.908 158.979 141.351L156.073 112.86C156.073 112.86 169.317 107.228 181.172 110.108Z" fill="url(#paint12_linear_7987_1957)"/>
<path d="M181.172 110.108V143.82C181.172 143.82 173.123 138.111 160.625 139.32L157.95 110.571C157.95 110.571 170.191 106.148 181.172 110.108Z" fill="url(#paint13_linear_7987_1957)"/>
<path d="M181.172 110.108V143.82C181.172 143.82 173.791 137.289 162.27 137.186L159.802 108.18C159.802 108.18 171.065 105.017 181.172 110.108Z" fill="url(#paint14_linear_7987_1957)"/>
<g style="mix-blend-mode:multiply">
<path d="M179.86 133.304V134.332C177.572 132.764 171.503 129.241 163.119 129.241C163.05 129.241 162.982 129.249 162.913 129.266L162.836 128.392C162.939 128.392 163.033 128.392 163.119 128.392C171.22 128.392 177.186 131.529 179.86 133.304Z" fill="#F8EBCF"/>
<path d="M179.86 128.675V129.703C177.649 128.263 172.017 125.203 164.225 125.203C163.685 125.203 163.119 125.229 162.579 125.255L162.502 124.381C163.085 124.346 163.659 124.329 164.225 124.329C171.76 124.329 177.314 127.081 179.86 128.675Z" fill="#F8EBCF"/>
<path d="M179.86 138.986C177.572 137.34 171.58 133.637 163.273 133.303L163.196 132.429C171.245 132.737 177.186 136.08 179.86 137.906V138.986Z" fill="#F8EBCF"/>
<path d="M167.465 111.935C173.354 111.935 177.7 113.683 179.86 114.789V115.766C177.957 114.737 173.585 112.809 167.465 112.809C165.896 112.809 164.199 112.937 161.55 113.4L161.499 112.526C164.148 112.063 165.871 111.935 167.465 111.935Z" fill="#F8EBCF"/>
<path d="M166.385 116.1C172.84 116.1 177.572 118.157 179.86 119.417V120.394C177.854 119.262 173.071 116.974 166.385 116.974C165.125 116.974 163.813 117.051 161.885 117.308L161.833 116.434C163.736 116.202 165.099 116.1 166.385 116.1Z" fill="#F8EBCF"/>
<path d="M165.305 120.24C172.3 120.24 177.443 122.632 179.86 124.046V125.049C177.752 123.763 172.557 121.115 165.305 121.115C164.379 121.115 163.402 121.166 162.245 121.295L162.167 120.42C163.35 120.292 164.353 120.24 165.305 120.24Z" fill="#F8EBCF"/>
</g>
<path d="M181.172 143.821C179.475 142.972 177.649 142.406 175.823 141.943C173.997 141.506 172.145 141.172 170.268 141.018C169.805 140.966 169.317 140.941 168.854 140.915L168.159 140.889L167.439 140.863H166.025L164.611 140.915C163.685 140.915 162.759 141.069 161.807 141.146C160.882 141.249 159.956 141.403 159.004 141.558L158.799 141.583L158.773 141.352C158.259 136.621 157.821 131.863 157.333 127.132L156.69 120.009L156.073 112.86L156.921 119.983L157.693 127.08C158.207 131.838 158.722 136.569 159.184 141.326L158.953 141.146C159.879 141.018 160.83 140.838 161.756 140.735C162.708 140.658 163.659 140.529 164.611 140.529L166.025 140.478L167.465 140.503L168.159 140.529L168.879 140.581C169.342 140.632 169.831 140.658 170.294 140.709C172.171 140.915 174.048 141.249 175.874 141.763C177.7 142.278 179.5 142.921 181.172 143.821Z" fill="url(#paint15_linear_7987_1957)"/>
<path d="M181.172 143.82C179.655 142.842 178.034 142.122 176.363 141.505C174.691 140.914 172.994 140.374 171.245 140.04C169.497 139.731 167.748 139.474 165.973 139.397C165.073 139.32 164.199 139.371 163.299 139.371C162.425 139.371 161.55 139.474 160.65 139.525H160.444L160.419 139.32C159.956 134.537 159.544 129.754 159.107 124.971L158.49 117.771L157.95 110.571L158.722 117.745L159.467 124.919C159.93 129.702 160.419 134.511 160.83 139.294L160.625 139.114C161.499 139.062 162.399 138.985 163.299 138.96C164.199 138.985 165.099 138.934 165.999 139.037C167.774 139.088 169.548 139.397 171.297 139.757C173.045 140.142 174.768 140.682 176.414 141.325C178.086 142.02 179.68 142.817 181.172 143.82Z" fill="url(#paint16_linear_7987_1957)"/>
<path d="M181.172 143.82C179.835 142.74 178.394 141.866 176.877 141.094C175.386 140.323 173.817 139.628 172.223 139.088C170.628 138.548 168.982 138.137 167.311 137.854C165.665 137.546 163.968 137.443 162.27 137.391H162.09V137.211C161.627 132.377 161.267 127.543 160.856 122.708L160.316 115.431L159.802 108.18L160.547 115.431L161.216 122.683C161.653 127.517 162.09 132.326 162.476 137.186L162.296 136.98C163.993 137.057 165.691 137.16 167.388 137.494C169.059 137.777 170.705 138.24 172.325 138.831C173.92 139.397 175.489 140.091 176.954 140.94C178.446 141.763 179.886 142.714 181.172 143.82Z" fill="url(#paint17_linear_7987_1957)"/>
<path d="M208.971 91.9799L180.863 75.7798L152.884 91.9799H150.029V93.6256L180.915 111.42L211.748 93.5999V91.9799H208.971Z" fill="url(#paint18_linear_7987_1957)"/>
<path d="M180.915 111.42L163.505 101.391V108.231C163.505 110.828 165.202 113.4 168.596 115.354C175.36 119.263 186.469 119.263 193.233 115.328C194.93 114.351 196.19 113.22 197.039 112.011C197.887 110.802 198.299 109.491 198.299 108.205V101.365L180.915 111.42Z" fill="url(#paint19_linear_7987_1957)"/>
<path d="M180.863 74.1851L150.029 92.0309L180.915 109.825L211.748 91.9795L180.863 74.1851Z" fill="url(#paint20_linear_7987_1957)"/>
<g style="mix-blend-mode:multiply">
<path d="M198.299 103.757V101.365L180.915 111.42L163.505 101.391V103.782L180.915 113.837L198.299 103.757Z" fill="#DCE8EF"/>
</g>
<path d="M183.795 92.0051C183.795 92.9565 182.483 93.728 180.889 93.728C179.294 93.728 177.983 92.9565 177.983 92.0051C177.983 91.0537 179.294 90.2822 180.889 90.2822C182.483 90.2822 183.795 91.0537 183.795 92.0051Z" fill="url(#paint21_linear_7987_1957)"/>
<path d="M196.524 116.536C196.19 116.536 195.907 116.253 195.907 115.919V112.293C195.907 111.959 196.19 111.676 196.524 111.676C196.859 111.676 197.142 111.959 197.142 112.293V115.919C197.142 116.253 196.859 116.536 196.524 116.536Z" fill="url(#paint22_linear_7987_1957)"/>
<path d="M196.525 114.275C196.062 114.275 195.701 113.889 195.701 113.452V112.577C195.701 112.114 196.062 111.753 196.525 111.753C196.962 111.753 197.348 112.114 197.348 112.577V113.452C197.348 113.889 196.962 114.275 196.525 114.275Z" fill="url(#paint23_radial_7987_1957)"/>
<path d="M196.524 112.705C196.293 112.705 196.113 112.525 196.113 112.294V101.031L181.069 92.3652C180.863 92.2366 180.812 92.0052 180.915 91.7995C181.043 91.5938 181.275 91.5423 181.48 91.6452L196.73 100.44C196.859 100.517 196.936 100.645 196.936 100.8V112.294C196.936 112.525 196.756 112.705 196.524 112.705Z" fill="url(#paint24_linear_7987_1957)"/>
<path d="M215.092 70.3279L216.094 72.3593L218.358 72.6936C218.82 72.7707 219.026 73.3622 218.666 73.6965L217.046 75.2908L217.432 77.5279C217.509 77.9908 217.02 78.3765 216.583 78.1451L214.552 77.0908L212.546 78.1451C212.108 78.3765 211.62 77.9908 211.697 77.5279L212.083 75.2908L210.463 73.6965C210.103 73.3622 210.283 72.7707 210.771 72.6936L213.034 72.3593L214.037 70.3279C214.243 69.8907 214.886 69.8907 215.092 70.3279Z" fill="url(#paint25_radial_7987_1957)"/>
<path d="M199.507 70.3279L200.51 72.3593L202.748 72.6936C203.236 72.7707 203.442 73.3622 203.082 73.6965L201.462 75.2908L201.848 77.5279C201.925 77.9908 201.41 78.3765 200.973 78.1451L198.967 77.0908L196.962 78.1451C196.524 78.3765 196.01 77.9908 196.113 77.5279L196.499 75.2908L194.853 73.6965C194.519 73.3622 194.699 72.7707 195.187 72.6936L197.45 72.3593L198.453 70.3279C198.659 69.8907 199.276 69.8907 199.507 70.3279Z" fill="url(#paint26_radial_7987_1957)"/>
<path d="M165.176 70.3279L166.205 72.3593L168.442 72.6936C168.931 72.7707 169.111 73.3622 168.777 73.6965L167.131 75.2908L167.516 77.5279C167.619 77.9908 167.105 78.3765 166.668 78.1451L164.662 77.0908L162.656 78.1451C162.219 78.3765 161.705 77.9908 161.782 77.5279L162.167 75.2908L160.547 73.6965C160.187 73.3622 160.393 72.7707 160.882 72.6936L163.119 72.3593L164.122 70.3279C164.353 69.8907 164.97 69.8907 165.176 70.3279Z" fill="url(#paint27_radial_7987_1957)"/>
<path d="M149.592 70.3279L150.595 72.3593L152.858 72.6936C153.347 72.7707 153.527 73.3622 153.192 73.6965L151.547 75.2908L151.932 77.5279C152.01 77.9908 151.521 78.3765 151.084 78.1451L149.078 77.0908L147.046 78.1451C146.635 78.3765 146.12 77.9908 146.198 77.5279L146.583 75.2908L144.963 73.6965C144.603 73.3622 144.809 72.7707 145.272 72.6936L147.535 72.3593L148.538 70.3279C148.769 69.8907 149.386 69.8907 149.592 70.3279Z" fill="url(#paint28_radial_7987_1957)"/>
<g clip-path="url(#clip1_7987_1957)">
<path d="M12.46 96.4298L13.955 113.336L36.5335 111.34L34.5785 89.2315L17.3124 90.7583C14.3784 91.0177 12.2059 93.5569 12.46 96.4298ZM20.1674 100.336L22.8238 100.101L22.5937 97.4999C22.5302 96.7816 23.0734 96.1468 23.8069 96.0819C24.5405 96.017 25.1866 96.5467 25.2501 97.265L25.4801 99.866L28.1365 99.6311C28.8697 99.5663 29.5162 100.096 29.5797 100.814C29.6432 101.532 29.1001 102.167 28.3665 102.232L25.7101 102.467L25.9401 105.068C26.0036 105.786 25.4605 106.421 24.727 106.486C23.9934 106.551 23.3473 106.021 23.2838 105.303L23.0538 102.702L20.3974 102.937C19.6638 103.002 19.0177 102.472 18.9542 101.754C18.8907 101.035 19.4338 100.401 20.1674 100.336Z" fill="white"/>
<path d="M54.501 87.4693L37.2349 88.9961L39.1898 111.104L61.7684 109.108L60.2734 92.2012C60.0193 89.3284 57.435 87.2098 54.501 87.4693ZM53.601 100L45.6322 100.705C44.8987 100.77 44.2526 100.24 44.189 99.5215C44.1255 98.8032 44.6686 98.1684 45.4022 98.1035L53.371 97.3988C54.1046 97.334 54.7507 97.8636 54.8142 98.5819C54.8777 99.3006 54.3346 99.9354 53.601 100Z" fill="white"/>
<path d="M15.6799 132.843C15.934 135.716 18.5183 137.835 21.4523 137.575L38.7184 136.049L36.7635 113.94L14.1849 115.937L15.6799 132.843ZM22.533 124.486C21.9777 124.014 21.9195 123.19 22.4029 122.644C22.8746 122.112 23.6906 122.04 24.2484 122.481L26.2893 124.154L28.0046 122.149C28.4883 121.603 29.3304 121.543 29.8857 122.015C30.4271 122.475 30.4977 123.274 30.0455 123.822L28.3298 125.827L30.3707 127.5C30.9423 127.952 31.0297 128.774 30.5658 129.336C30.1019 129.897 29.2623 129.986 28.6907 129.534C28.6785 129.524 28.6669 129.515 28.655 129.504L26.6145 127.832L24.8988 129.837C24.4155 130.383 23.5734 130.443 23.0181 129.971C22.4763 129.511 22.4056 128.712 22.8583 128.164L24.5736 126.159L22.533 124.486Z" fill="white"/>
<path d="M41.3748 135.814L58.641 134.287C61.5749 134.027 63.7474 131.488 63.4934 128.615L61.9984 111.709L39.4199 113.706L41.3748 135.814ZM47.3572 120.212L55.326 119.508C56.0596 119.443 56.7057 119.972 56.7692 120.691C56.8327 121.409 56.2896 122.044 55.556 122.109L47.5872 122.813C46.8536 122.878 46.2076 122.349 46.144 121.63C46.0805 120.912 46.6236 120.277 47.3572 120.212ZM47.8172 125.414L55.786 124.709C56.5196 124.644 57.1657 125.174 57.2292 125.892C57.2927 126.611 56.7496 127.246 56.016 127.31L48.0472 128.015C47.3136 128.08 46.6675 127.55 46.604 126.832C46.5405 126.114 47.0836 125.479 47.8172 125.414Z" fill="white"/>
</g>
<g clip-path="url(#clip2_7987_1957)">
<path d="M68.4978 163.419C58.9962 162.566 50.5254 169.829 49.7021 179.539C49.4275 182.778 50.0281 185.884 51.3019 188.616C51.4325 188.897 51.4365 189.222 51.3119 189.506L49.0312 194.706C48.7022 195.457 49.2945 196.285 50.0936 196.192L56.4943 195.449C56.7389 195.421 56.9857 195.481 57.189 195.622C59.5629 197.268 62.3738 198.331 65.4416 198.589C74.9393 199.388 83.3277 192.146 84.1414 182.444C84.9532 172.764 77.9569 164.269 68.4978 163.419ZM57.3614 182.289C57.2945 183.086 56.6074 183.68 55.8267 183.614C55.0461 183.549 54.4674 182.849 54.5342 182.052L54.8825 177.899C54.9494 177.102 55.6366 176.509 56.4172 176.574C57.1979 176.64 57.7766 177.339 57.7097 178.136L57.3614 182.289ZM62.5065 185.775C62.4396 186.572 61.7525 187.166 60.9718 187.1C60.1912 187.035 59.6125 186.335 59.6794 185.538L60.5365 175.319C60.6034 174.522 61.2905 173.928 62.0712 173.994C62.8518 174.059 63.4305 174.759 63.3637 175.556L62.5065 185.775ZM68.1605 183.195C68.0936 183.992 67.4064 184.585 66.6258 184.52C65.8451 184.454 65.2664 183.755 65.3333 182.958L65.6816 178.805C65.7485 178.008 66.4356 177.414 67.2163 177.48C67.9969 177.545 68.5756 178.245 68.5088 179.042L68.1605 183.195ZM73.4257 185.248C73.3588 186.045 72.6717 186.638 71.891 186.573C71.1104 186.508 70.5317 185.808 70.5985 185.011L71.2153 177.658C71.2822 176.86 71.9693 176.267 72.75 176.333C73.5306 176.398 74.1093 177.098 74.0424 177.895L73.4257 185.248ZM79.0558 182.95C78.9889 183.748 78.3018 184.341 77.5211 184.276C76.7405 184.21 76.1618 183.511 76.2287 182.713L76.384 180.861C76.4509 180.064 77.1381 179.47 77.9187 179.536C78.6994 179.601 79.2781 180.301 79.2112 181.098L79.0558 182.95Z" fill="white"/>
<path d="M93.9007 185.747C93.8253 185.447 93.8828 185.128 94.0581 184.873C95.7667 182.395 96.8757 179.438 97.1469 176.205C97.9617 166.49 90.9125 157.969 81.402 157.171C77.0092 156.802 72.8821 158.127 69.6169 160.629C80.607 162.098 87.8924 172.22 86.9684 182.681C86.6995 185.946 85.6609 189.112 83.9341 191.915C85.0319 191.638 86.0995 191.261 87.0869 190.799C87.3108 190.695 87.5636 190.676 87.7999 190.745L93.9881 192.544C94.7605 192.768 95.4826 192.05 95.2832 191.256L93.9007 185.747Z" fill="white"/>
</g>
<g clip-path="url(#clip3_7987_1957)">
<path d="M257.377 169.31C254.932 169.442 252.936 171.118 252.284 173.342C252.155 173.78 252.247 174.253 252.531 174.611C252.814 174.969 253.254 175.167 253.709 175.142L263.299 174.622C263.131 171.52 260.479 169.141 257.377 169.31Z" fill="#FFECC8"/>
<path d="M280.372 210.499C280.173 212.711 279.218 214.711 277.787 216.273L296.264 215.27C298.857 215.129 301.049 213.593 302.151 211.431C302.379 210.982 302.351 210.446 302.076 210.025C301.802 209.603 301.323 209.362 300.821 209.389L280.372 210.499L280.372 210.499Z" fill="#FFECC8"/>
<path d="M288.046 167.645L263.611 168.971C264.618 169.972 267.478 172.176 265.767 184.52C264.667 192.994 261.913 201.845 262.45 210.349C262.806 214.077 266.034 216.91 269.808 216.705C273.679 216.495 276.658 213.174 276.448 209.303C276.406 208.527 277 207.865 277.776 207.823L291.623 207.071C291.557 201.993 292.564 196.829 293.541 191.819C294.655 186.099 295.765 180.129 295.448 174.284C295.238 170.413 291.917 167.435 288.046 167.645ZM286.899 198.69L269.136 199.654C268.361 199.696 267.698 199.102 267.656 198.326C267.614 197.551 268.208 196.888 268.984 196.846L286.747 195.882C287.522 195.839 288.185 196.434 288.227 197.21C288.269 197.985 287.675 198.648 286.899 198.69ZM287.93 193.001L270.204 193.963C269.428 194.005 268.765 193.41 268.723 192.635C268.681 191.859 269.276 191.197 270.051 191.154L287.777 190.192C288.553 190.15 289.215 190.745 289.257 191.52C289.3 192.296 288.705 192.959 287.93 193.001ZM288.997 187.31L271.193 188.276C270.418 188.318 269.755 187.723 269.713 186.948C269.671 186.172 270.265 185.51 271.041 185.467L288.844 184.501C289.62 184.459 290.283 185.054 290.325 185.829C290.367 186.605 289.772 187.267 288.997 187.31ZM289.763 181.635L271.86 182.606C271.085 182.648 270.422 182.054 270.38 181.278C270.338 180.503 270.932 179.84 271.708 179.798L289.611 178.826C290.386 178.784 291.049 179.379 291.091 180.154C291.133 180.93 290.539 181.593 289.763 181.635Z" fill="#FFECC8"/>
</g>
<g clip-path="url(#clip4_7987_1957)">
<path d="M326.948 23.3103L287.905 26.4146C285.758 26.5854 284.137 28.4452 284.304 30.5466L286.734 61.1166C286.902 63.2173 288.796 64.7983 290.943 64.6276L308.512 63.2306L308.816 67.0515L302.96 67.5172C300.803 67.6886 299.191 69.5369 299.359 71.6491L322.785 69.7824C322.617 67.6743 320.733 66.1005 318.576 66.272L312.72 66.7376L312.416 62.9202L329.986 61.5232C332.133 61.3525 333.754 59.4921 333.587 57.3913L331.156 26.8213C330.989 24.72 329.095 23.1396 326.948 23.3103ZM301.793 49.228L299.884 51.4188L294.007 46.516C293.185 45.8298 293.089 44.621 293.792 43.8139L298.82 38.044L301.052 39.9056L296.66 44.9449L301.793 49.228ZM309.177 52.6024L306.175 52.8412L308.714 35.3349L311.716 35.0961L309.177 52.6024ZM324.098 44.1234L319.07 49.8933L316.839 48.0317L321.231 42.9919L316.097 38.7099L318.007 36.5191L323.884 41.4219C324.705 42.1037 324.801 43.3165 324.098 44.1234Z" fill="#FFC8E4"/>
</g>
<g clip-path="url(#clip5_7987_1957)">
<path d="M326.651 107.028C329.181 107.319 331.469 105.503 331.76 102.973C332.051 100.442 330.235 98.1552 327.705 97.8642C325.174 97.5733 322.887 99.3888 322.596 101.919C322.305 104.45 324.12 106.737 326.651 107.028Z" fill="#C8FFDF"/>
<path d="M329.705 107.379L326.651 107.028L323.596 106.677C321.07 106.386 318.778 108.205 318.488 110.732L318.312 112.259C318.215 113.102 318.82 113.865 319.664 113.962L331.882 115.367C332.725 115.464 333.488 114.858 333.585 114.015L333.76 112.488C334.051 109.961 332.232 107.67 329.705 107.379Z" fill="#C8FFDF"/>
<path d="M339.518 116.245C342.049 116.536 344.336 114.72 344.627 112.19C344.918 109.659 343.102 107.372 340.572 107.081C338.042 106.79 335.754 108.606 335.463 111.136C335.172 113.667 336.988 115.954 339.518 116.245Z" fill="#C8FFDF"/>
<path d="M312.027 113.084C314.558 113.375 316.845 111.559 317.136 109.029C317.427 106.499 315.611 104.211 313.081 103.92C310.551 103.629 308.263 105.445 307.972 107.975C307.681 110.506 309.497 112.793 312.027 113.084Z" fill="#C8FFDF"/>
<path d="M305.04 120.018L311.226 120.729C313.642 119.318 316.315 118.337 319.146 117.881C319.079 115.629 317.384 113.7 315.082 113.435L312.027 113.084L308.973 112.733C306.446 112.442 304.155 114.261 303.864 116.788L303.689 118.315C303.592 119.159 304.197 119.921 305.04 120.018Z" fill="#C8FFDF"/>
<path d="M338.563 123.872L344.75 124.584C345.593 124.681 346.355 124.075 346.452 123.232L346.628 121.705C346.919 119.178 345.1 116.887 342.573 116.596L339.518 116.245L336.464 115.894C334.162 115.629 332.073 117.123 331.497 119.301C334.15 120.388 336.531 121.95 338.563 123.872Z" fill="#C8FFDF"/>
<path d="M325.246 119.246C313.443 117.889 302.764 126.383 301.406 138.17L344.17 143.086C345.522 131.299 337.049 120.603 325.246 119.246ZM312.272 137.871L307.69 137.345L308.129 133.526C308.178 133.105 308.559 132.802 308.981 132.851L312.035 133.202C312.457 133.25 312.76 133.631 312.711 134.053L312.272 137.871ZM318.381 138.574L313.8 138.047L314.941 128.12C314.989 127.698 315.371 127.395 315.792 127.444L318.847 127.795C319.269 127.844 319.571 128.225 319.523 128.647L318.381 138.574ZM324.491 139.276L319.909 138.749L321.752 122.713C321.801 122.291 322.182 121.989 322.604 122.037L325.658 122.388C326.08 122.437 326.383 122.818 326.334 123.24L324.491 139.276ZM330.6 139.979L326.018 139.452L327.335 127.997C327.383 127.575 327.765 127.273 328.186 127.321L331.241 127.673C331.663 127.721 331.965 128.102 331.917 128.524L330.6 139.979ZM336.045 139.721L336.033 139.83C335.984 140.252 335.604 140.554 335.181 140.505C334.759 140.457 334.457 140.076 334.506 139.654L334.518 139.546C333.244 139.053 332.403 137.755 332.566 136.336C332.614 135.914 332.995 135.612 333.417 135.66C333.839 135.709 334.142 136.09 334.093 136.512C333.996 137.354 334.602 138.118 335.445 138.215C336.288 138.311 337.051 137.705 337.148 136.863C337.245 136.021 336.639 135.257 335.796 135.16C334.112 134.966 332.899 133.439 333.093 131.754C333.256 130.335 334.37 129.262 335.722 129.072L335.735 128.963C335.783 128.541 336.164 128.239 336.586 128.287C337.008 128.336 337.311 128.717 337.262 129.139L337.25 129.247C338.524 129.74 339.365 131.037 339.202 132.457C339.153 132.879 338.772 133.181 338.35 133.132C337.928 133.084 337.626 132.703 337.675 132.281C337.771 131.439 337.166 130.675 336.323 130.578C335.48 130.481 334.717 131.088 334.62 131.93C334.523 132.772 335.129 133.536 335.972 133.633C337.656 133.826 338.869 135.354 338.675 137.038C338.512 138.458 337.398 139.531 336.045 139.721Z" fill="#C8FFDF"/>
</g>
<defs>
<linearGradient id="paint0_linear_7987_1957" x1="199.697" y1="47.981" x2="254.589" y2="143.063" gradientUnits="userSpaceOnUse">
<stop stop-color="#DA006A"/>
<stop offset="1" stop-color="#733BE4"/>
</linearGradient>
<linearGradient id="paint1_linear_7987_1957" x1="196.762" y1="58.9478" x2="243.624" y2="140.121" gradientUnits="userSpaceOnUse">
<stop stop-color="#EEBD2F"/>
<stop offset="1" stop-color="#DA5618"/>
</linearGradient>
<linearGradient id="paint2_linear_7987_1957" x1="203.787" y1="155.443" x2="178.016" y2="146.158" gradientUnits="userSpaceOnUse">
<stop stop-color="#5899FF"/>
<stop offset="1" stop-color="#4F39EE"/>
</linearGradient>
<linearGradient id="paint3_linear_7987_1957" x1="212.09" y1="152.461" x2="202.643" y2="150.275" gradientUnits="userSpaceOnUse">
<stop stop-color="#5899FF"/>
<stop offset="1" stop-color="#4F39EE"/>
</linearGradient>
<linearGradient id="paint4_linear_7987_1957" x1="209.866" y1="149.719" x2="201.051" y2="148.413" gradientUnits="userSpaceOnUse">
<stop stop-color="#F1CC60"/>
<stop offset="0.31" stop-color="#F5E2AA"/>
<stop offset="1" stop-color="#E59F2F"/>
</linearGradient>
<linearGradient id="paint5_linear_7987_1957" x1="206.16" y1="160.653" x2="181.496" y2="150.338" gradientUnits="userSpaceOnUse">
<stop stop-color="#F1CC60"/>
<stop offset="0.31" stop-color="#F5E2AA"/>
<stop offset="1" stop-color="#E59F2F"/>
</linearGradient>
<linearGradient id="paint6_linear_7987_1957" x1="181.166" y1="107.215" x2="202.527" y2="107.215" gradientUnits="userSpaceOnUse">
<stop stop-color="#F1CC60"/>
<stop offset="0.31" stop-color="#F5E2AA"/>
<stop offset="1" stop-color="#E59F2F"/>
</linearGradient>
<linearGradient id="paint7_linear_7987_1957" x1="204.775" y1="98.9961" x2="224.569" y2="133.283" gradientUnits="userSpaceOnUse">
<stop stop-color="#F1CC60"/>
<stop offset="0.31" stop-color="#F5E2AA"/>
<stop offset="1" stop-color="#E59F2F"/>
</linearGradient>
<linearGradient id="paint8_linear_7987_1957" x1="207.605" y1="95.0657" x2="227.928" y2="130.269" gradientUnits="userSpaceOnUse">
<stop stop-color="#F1CC60"/>
<stop offset="0.31" stop-color="#F5E2AA"/>
<stop offset="1" stop-color="#E59F2F"/>
</linearGradient>
<linearGradient id="paint9_linear_7987_1957" x1="211.358" y1="90.503" x2="232.252" y2="126.695" gradientUnits="userSpaceOnUse">
<stop stop-color="#F1CC60"/>
<stop offset="0.31" stop-color="#F5E2AA"/>
<stop offset="1" stop-color="#E59F2F"/>
</linearGradient>
<linearGradient id="paint10_linear_7987_1957" x1="158.544" y1="155.443" x2="184.315" y2="146.158" gradientUnits="userSpaceOnUse">
<stop stop-color="#5899FF"/>
<stop offset="1" stop-color="#4F39EE"/>
</linearGradient>
<linearGradient id="paint11_linear_7987_1957" x1="150.241" y1="152.461" x2="159.688" y2="150.275" gradientUnits="userSpaceOnUse">
<stop stop-color="#5899FF"/>
<stop offset="1" stop-color="#4F39EE"/>
</linearGradient>
<linearGradient id="paint12_linear_7987_1957" x1="152.465" y1="149.719" x2="161.28" y2="148.413" gradientUnits="userSpaceOnUse">
<stop stop-color="#F1CC60"/>
<stop offset="0.31" stop-color="#F5E2AA"/>
<stop offset="1" stop-color="#E59F2F"/>
</linearGradient>
<linearGradient id="paint13_linear_7987_1957" x1="156.171" y1="160.653" x2="180.835" y2="150.338" gradientUnits="userSpaceOnUse">
<stop stop-color="#F1CC60"/>
<stop offset="0.31" stop-color="#F5E2AA"/>
<stop offset="1" stop-color="#E59F2F"/>
</linearGradient>
<linearGradient id="paint14_linear_7987_1957" x1="181.166" y1="107.215" x2="159.805" y2="107.215" gradientUnits="userSpaceOnUse">
<stop stop-color="#F1CC60"/>
<stop offset="0.31" stop-color="#F5E2AA"/>
<stop offset="1" stop-color="#E59F2F"/>
</linearGradient>
<linearGradient id="paint15_linear_7987_1957" x1="199.563" y1="123.247" x2="179.769" y2="157.533" gradientUnits="userSpaceOnUse">
<stop stop-color="#F1CC60"/>
<stop offset="0.31" stop-color="#F5E2AA"/>
<stop offset="1" stop-color="#E59F2F"/>
</linearGradient>
<linearGradient id="paint16_linear_7987_1957" x1="204.792" y1="123.969" x2="184.469" y2="159.172" gradientUnits="userSpaceOnUse">
<stop stop-color="#F1CC60"/>
<stop offset="0.31" stop-color="#F5E2AA"/>
<stop offset="1" stop-color="#E59F2F"/>
</linearGradient>
<linearGradient id="paint17_linear_7987_1957" x1="210.981" y1="125.146" x2="190.087" y2="161.337" gradientUnits="userSpaceOnUse">
<stop stop-color="#F1CC60"/>
<stop offset="0.31" stop-color="#F5E2AA"/>
<stop offset="1" stop-color="#E59F2F"/>
</linearGradient>
<linearGradient id="paint18_linear_7987_1957" x1="172.903" y1="54.2388" x2="216.758" y2="105.968" gradientUnits="userSpaceOnUse">
<stop stop-color="#5899FF"/>
<stop offset="1" stop-color="#4F39EE"/>
</linearGradient>
<linearGradient id="paint19_linear_7987_1957" x1="163.382" y1="101.368" x2="187.665" y2="101.368" gradientUnits="userSpaceOnUse">
<stop stop-color="#514FF2"/>
<stop offset="0.305" stop-color="#5899FF"/>
<stop offset="1" stop-color="#4F39EE"/>
</linearGradient>
<linearGradient id="paint20_linear_7987_1957" x1="175.068" y1="51.7345" x2="245.693" y2="150.159" gradientUnits="userSpaceOnUse">
<stop stop-color="#5899FF"/>
<stop offset="1" stop-color="#4F39EE"/>
</linearGradient>
<linearGradient id="paint21_linear_7987_1957" x1="180.372" y1="88.1441" x2="187.092" y2="97.509" gradientUnits="userSpaceOnUse">
<stop stop-color="#5899FF"/>
<stop offset="1" stop-color="#4F39EE"/>
</linearGradient>
<linearGradient id="paint22_linear_7987_1957" x1="195.909" y1="111.681" x2="197.133" y2="111.681" gradientUnits="userSpaceOnUse">
<stop stop-color="#EEBD2F"/>
<stop offset="1" stop-color="#DA5618"/>
</linearGradient>
<radialGradient id="paint23_radial_7987_1957" cx="0" cy="0" r="1" gradientUnits="userSpaceOnUse" gradientTransform="translate(196.522 113.007) scale(1.06121 1.0612)">
<stop stop-color="#E79927"/>
<stop offset="1" stop-color="#DD661C"/>
</radialGradient>
<linearGradient id="paint24_linear_7987_1957" x1="180.865" y1="91.5943" x2="196.929" y2="91.5943" gradientUnits="userSpaceOnUse">
<stop stop-color="#EEBD2F"/>
<stop offset="1" stop-color="#DA5618"/>
</linearGradient>
<radialGradient id="paint25_radial_7987_1957" cx="0" cy="0" r="1" gradientUnits="userSpaceOnUse" gradientTransform="translate(213.055 73.3416) rotate(33.0528) scale(3.98768 3.98757)">
<stop stop-color="#E79927"/>
<stop offset="1" stop-color="#DD661C"/>
</radialGradient>
<radialGradient id="paint26_radial_7987_1957" cx="0" cy="0" r="1" gradientUnits="userSpaceOnUse" gradientTransform="translate(197.466 73.3416) rotate(33.0528) scale(3.98768 3.98757)">
<stop stop-color="#E79927"/>
<stop offset="1" stop-color="#DD661C"/>
</radialGradient>
<radialGradient id="paint27_radial_7987_1957" cx="0" cy="0" r="1" gradientUnits="userSpaceOnUse" gradientTransform="translate(163.151 73.3416) rotate(33.056) scale(3.98782 3.98771)">
<stop stop-color="#E79927"/>
<stop offset="1" stop-color="#DD661C"/>
</radialGradient>
<radialGradient id="paint28_radial_7987_1957" cx="0" cy="0" r="1" gradientUnits="userSpaceOnUse" gradientTransform="translate(147.562 73.3416) rotate(33.056) scale(3.98782 3.98771)">
<stop stop-color="#E79927"/>
<stop offset="1" stop-color="#DD661C"/>
</radialGradient>
<clipPath id="clip0_7987_1957">
<rect width="48" height="46" fill="white" transform="translate(55.5793 20) rotate(4.46274)"/>
</clipPath>
<clipPath id="clip1_7987_1957">
<rect width="48" height="47" fill="white" transform="translate(12 91.228) rotate(-5.05341)"/>
</clipPath>
<clipPath id="clip2_7987_1957">
<rect width="47" height="48" fill="white" transform="translate(52.0121 152) rotate(4.7947)"/>
</clipPath>
<clipPath id="clip3_7987_1957">
<rect width="48" height="48" fill="white" transform="translate(252 169.602) rotate(-3.1067)"/>
</clipPath>
<clipPath id="clip4_7987_1957">
<rect width="47" height="46" fill="white" transform="translate(284 26.7251) rotate(-4.54604)"/>
</clipPath>
<clipPath id="clip5_7987_1957">
<rect width="49.1949" height="49.1949" fill="white" transform="translate(303.619 92) rotate(6.5589)"/>
</clipPath>
</defs>
</svg>
