<svg width="363" height="232" viewBox="0 0 363 232" fill="none" xmlns="http://www.w3.org/2000/svg">
<g clip-path="url(#clip0_8631_1029)">
<path d="M97.6116 57.1624L86.9344 37.5375C86.5998 36.9664 86.4631 36.2895 86.5101 35.6876L87.2862 25.7437L88.5424 25.8418C89.4217 25.9104 90.2271 25.3071 90.2975 24.4042C90.3633 23.5615 89.6665 22.7744 88.7871 22.7058L70.9931 21.317C70.1138 21.2484 69.3083 21.8516 69.2374 22.7606C69.1716 23.6033 69.869 24.3844 70.7484 24.453L72.0046 24.5511L71.2332 34.4347C71.1815 35.0968 70.9461 35.6841 70.5269 36.1964L56.9924 53.9922C55.5133 55.9418 55.2578 58.4048 56.2867 60.6047C57.378 62.8155 59.484 64.2516 61.9964 64.4477L90.9832 66.7101C93.5018 66.9066 95.8616 65.819 97.2199 63.7994C98.6359 61.8509 98.7656 59.3781 97.6116 57.1624ZM70.3799 55.1642C69.0609 55.0613 68.0729 53.9547 68.1721 52.6846C68.2707 51.4206 69.4184 50.4806 70.7374 50.5836C72.0564 50.6865 73.0443 51.7931 72.9457 53.0572C72.8466 54.3272 71.6989 55.2672 70.3799 55.1642ZM80.65 61.301C79.1237 61.1819 77.9789 59.8996 78.0935 58.4309C78.2076 56.9682 79.5376 55.8789 81.0638 55.9981C82.5964 56.1177 83.7412 57.4001 83.627 58.8627C83.5124 60.3314 82.1825 61.4207 80.65 61.301ZM79.2868 48.4045C79.3676 47.3692 80.306 46.6007 81.38 46.6845C82.4604 46.7688 83.2681 47.6736 83.1872 48.7089C83.1069 49.7382 82.1686 50.5068 81.0882 50.4225C80.0142 50.3386 79.2064 49.4338 79.2868 48.4045ZM80.6576 44.1997C76.9327 42.4556 73.2363 42.0459 69.7725 42.6234L73.2281 38.1029C73.9989 37.1335 74.4069 35.9542 74.5055 34.6901L75.2769 24.8065L84.0766 25.4932L83.3052 35.3769C83.2112 36.5808 83.5004 37.8145 84.0439 38.947L87.8559 45.9727C85.4644 45.8466 83.0431 45.2942 80.6576 44.1997Z" fill="#111111"/>
</g>
<path d="M200.419 82.4395L206.539 85.9623H218.755V125.923C218.755 143.871 201.988 158.477 181.389 158.477C160.79 158.477 144.023 143.871 144.023 125.923V85.9623H156.29L162.385 82.4395H140.5V125.923C140.5 145.826 158.836 162 181.389 162C203.942 162 222.278 145.826 222.278 125.923V82.4395H200.419Z" fill="url(#paint0_linear_8631_1029)"/>
<path d="M210.628 88.3281L212.66 89.511H215.232V125.923C215.232 141.943 200.033 154.954 181.389 154.954C162.745 154.954 147.546 141.943 147.546 125.923V89.511H150.195L152.227 88.3281H146.389V125.923C146.389 142.586 162.076 156.137 181.389 156.137C200.702 156.137 216.389 142.586 216.389 125.923V88.3281H210.628Z" fill="url(#paint1_linear_8631_1029)"/>
<path d="M208.7 115.303L207.465 115.432C203.325 113.709 192.01 109.595 181.672 110.958V144.669C181.672 144.669 191.161 140.606 205.922 144.335L209.111 116.152L208.7 115.303Z" fill="url(#paint2_linear_8631_1029)"/>
<path d="M181.672 110.109V143.82C181.672 143.82 191.007 139.757 205.562 143.486L208.7 115.303C208.7 115.303 194.427 108.386 181.672 110.109Z" fill="url(#paint3_linear_8631_1029)"/>
<path d="M181.672 110.108V143.82C181.672 143.82 190.338 138.908 203.839 141.351L206.771 112.86C206.771 112.86 193.527 107.228 181.672 110.108Z" fill="url(#paint4_linear_8631_1029)"/>
<path d="M181.672 110.108V143.82C181.672 143.82 189.695 138.111 202.193 139.32L204.894 110.571C204.894 110.571 192.627 106.148 181.672 110.108Z" fill="url(#paint5_linear_8631_1029)"/>
<path d="M181.672 110.108V143.82C181.672 143.82 189.052 137.289 200.548 137.186L203.016 108.18C203.016 108.18 191.753 105.017 181.672 110.108Z" fill="url(#paint6_linear_8631_1029)"/>
<g style="mix-blend-mode:multiply">
<path d="M182.983 133.304V134.332C185.272 132.764 191.315 129.241 199.725 129.241C199.776 129.241 199.836 129.249 199.905 129.266L199.982 128.392C199.896 128.392 199.81 128.392 199.725 128.392C191.598 128.392 185.658 131.529 182.983 133.304Z" fill="#F8EBCF"/>
<path d="M182.983 128.675V129.703C185.169 128.263 190.801 125.203 198.619 125.203C199.159 125.203 199.699 125.229 200.265 125.255L200.342 124.381C199.759 124.346 199.185 124.329 198.619 124.329C191.058 124.329 185.529 127.081 182.983 128.675Z" fill="#F8EBCF"/>
<path d="M182.983 138.986C185.246 137.34 191.238 133.637 199.57 133.303L199.648 132.429C191.573 132.737 185.658 136.08 182.983 137.906V138.986Z" fill="#F8EBCF"/>
<path d="M195.353 111.935C189.464 111.935 185.144 113.683 182.983 114.789V115.766C184.861 114.737 189.258 112.809 195.353 112.809C196.947 112.809 198.619 112.937 201.268 113.4L201.345 112.526C198.696 112.063 196.973 111.935 195.353 111.935Z" fill="#F8EBCF"/>
<path d="M196.433 116.1C190.004 116.1 185.272 118.157 182.983 119.417V120.394C184.964 119.262 189.772 116.974 196.433 116.974C197.693 116.974 199.03 117.051 200.933 117.308L201.011 116.434C199.082 116.202 197.719 116.1 196.433 116.1Z" fill="#F8EBCF"/>
<path d="M197.513 120.24C190.518 120.24 185.401 122.632 182.983 124.046V125.049C185.066 123.763 190.287 121.115 197.513 121.115C198.465 121.115 199.416 121.166 200.599 121.295L200.676 120.42C199.468 120.292 198.465 120.24 197.513 120.24Z" fill="#F8EBCF"/>
</g>
<path d="M181.672 143.821C183.343 142.921 185.118 142.278 186.944 141.763C188.77 141.249 190.647 140.915 192.55 140.709C193.013 140.658 193.476 140.632 193.964 140.581L194.659 140.529L195.379 140.503L196.793 140.478L198.233 140.529C199.185 140.529 200.11 140.658 201.062 140.735C202.013 140.838 202.939 141.018 203.891 141.146L203.634 141.326C204.096 136.569 204.637 131.838 205.125 127.08L205.922 119.983L206.771 112.86L206.154 120.009L205.485 127.132C205.022 131.863 204.559 136.621 204.071 141.352L204.045 141.583L203.814 141.558C202.888 141.403 201.962 141.249 201.011 141.146C200.085 141.069 199.159 140.915 198.207 140.915L196.793 140.863H195.379L194.684 140.889L193.99 140.915C193.501 140.941 193.038 140.966 192.576 141.018C190.698 141.172 188.821 141.506 186.995 141.943C185.169 142.406 183.369 142.972 181.672 143.821Z" fill="url(#paint7_linear_8631_1029)"/>
<path d="M181.672 143.82C183.138 142.817 184.758 142.02 186.404 141.325C188.075 140.682 189.773 140.142 191.521 139.757C193.27 139.397 195.044 139.088 196.844 139.037C197.745 138.934 198.645 138.985 199.519 138.96C200.419 138.985 201.319 139.062 202.219 139.114L201.988 139.294C202.399 134.511 202.914 129.702 203.351 124.919L204.096 117.745L204.894 110.571L204.328 117.771L203.736 124.971C203.274 129.754 202.888 134.537 202.399 139.32L202.373 139.525H202.168C201.293 139.474 200.419 139.371 199.519 139.371C198.645 139.371 197.745 139.32 196.87 139.397C195.096 139.474 193.321 139.731 191.598 140.04C189.85 140.374 188.152 140.914 186.481 141.505C184.809 142.122 183.163 142.842 181.672 143.82Z" fill="url(#paint8_linear_8631_1029)"/>
<path d="M181.672 143.82C182.958 142.714 184.372 141.763 185.864 140.94C187.355 140.091 188.898 139.397 190.518 138.831C192.113 138.24 193.759 137.777 195.456 137.494C197.127 137.16 198.85 137.057 200.548 136.98L200.342 137.186C200.728 132.326 201.191 127.517 201.602 122.683L202.296 115.431L203.016 108.18L202.528 115.431L201.962 122.708C201.576 127.543 201.191 132.377 200.753 137.211L200.728 137.391H200.548C198.876 137.443 197.179 137.546 195.507 137.854C193.861 138.137 192.216 138.548 190.621 139.088C189.001 139.628 187.458 140.323 185.941 141.094C184.449 141.866 182.983 142.74 181.672 143.82Z" fill="url(#paint9_linear_8631_1029)"/>
<path d="M154.618 115.303L155.853 115.432C159.993 113.709 171.308 109.595 181.672 110.958V144.669C181.672 144.669 172.182 140.606 157.396 144.335L154.207 116.152L154.618 115.303Z" fill="url(#paint10_linear_8631_1029)"/>
<path d="M181.672 110.109V143.82C181.672 143.82 172.311 139.757 157.756 143.486L154.618 115.303C154.618 115.303 168.891 108.386 181.672 110.109Z" fill="url(#paint11_linear_8631_1029)"/>
<path d="M181.672 110.108V143.82C181.672 143.82 172.98 138.908 159.479 141.351L156.573 112.86C156.573 112.86 169.817 107.228 181.672 110.108Z" fill="url(#paint12_linear_8631_1029)"/>
<path d="M181.672 110.108V143.82C181.672 143.82 173.623 138.111 161.124 139.32L158.45 110.571C158.45 110.571 170.691 106.148 181.672 110.108Z" fill="url(#paint13_linear_8631_1029)"/>
<path d="M181.672 110.108V143.82C181.672 143.82 174.291 137.289 162.77 137.186L160.302 108.18C160.302 108.18 171.565 105.017 181.672 110.108Z" fill="url(#paint14_linear_8631_1029)"/>
<g style="mix-blend-mode:multiply">
<path d="M180.36 133.304V134.332C178.071 132.764 172.002 129.241 163.619 129.241C163.55 129.241 163.482 129.249 163.413 129.266L163.336 128.392C163.439 128.392 163.533 128.392 163.619 128.392C171.719 128.392 177.686 131.529 180.36 133.304Z" fill="#F8EBCF"/>
<path d="M180.36 128.675V129.703C178.149 128.263 172.517 125.203 164.725 125.203C164.185 125.203 163.619 125.229 163.079 125.255L163.002 124.381C163.585 124.346 164.159 124.329 164.725 124.329C172.26 124.329 177.814 127.081 180.36 128.675Z" fill="#F8EBCF"/>
<path d="M180.36 138.986C178.071 137.34 172.08 133.637 163.773 133.303L163.696 132.429C171.745 132.737 177.686 136.08 180.36 137.906V138.986Z" fill="#F8EBCF"/>
<path d="M167.965 111.935C173.854 111.935 178.2 113.683 180.36 114.789V115.766C178.457 114.737 174.085 112.809 167.965 112.809C166.396 112.809 164.699 112.937 162.05 113.4L161.999 112.526C164.648 112.063 166.371 111.935 167.965 111.935Z" fill="#F8EBCF"/>
<path d="M166.885 116.1C173.34 116.1 178.071 118.157 180.36 119.417V120.394C178.354 119.262 173.571 116.974 166.885 116.974C165.625 116.974 164.313 117.051 162.384 117.308L162.333 116.434C164.236 116.202 165.599 116.1 166.885 116.1Z" fill="#F8EBCF"/>
<path d="M165.805 120.24C172.8 120.24 177.943 122.632 180.36 124.046V125.049C178.252 123.763 173.057 121.115 165.805 121.115C164.879 121.115 163.902 121.166 162.745 121.295L162.667 120.42C163.85 120.292 164.853 120.24 165.805 120.24Z" fill="#F8EBCF"/>
</g>
<path d="M181.672 143.821C179.975 142.972 178.149 142.406 176.323 141.943C174.497 141.506 172.645 141.172 170.768 141.018C170.305 140.966 169.817 140.941 169.354 140.915L168.659 140.889L167.939 140.863H166.525L165.111 140.915C164.185 140.915 163.259 141.069 162.307 141.146C161.382 141.249 160.456 141.403 159.504 141.558L159.299 141.583L159.273 141.352C158.759 136.621 158.321 131.863 157.833 127.132L157.19 120.009L156.573 112.86L157.421 119.983L158.193 127.08C158.707 131.838 159.222 136.569 159.684 141.326L159.453 141.146C160.379 141.018 161.33 140.838 162.256 140.735C163.208 140.658 164.159 140.529 165.111 140.529L166.525 140.478L167.965 140.503L168.659 140.529L169.379 140.581C169.842 140.632 170.331 140.658 170.794 140.709C172.671 140.915 174.548 141.249 176.374 141.763C178.2 142.278 180 142.921 181.672 143.821Z" fill="url(#paint15_linear_8631_1029)"/>
<path d="M181.672 143.82C180.154 142.842 178.534 142.122 176.863 141.505C175.191 140.914 173.494 140.374 171.745 140.04C169.997 139.731 168.248 139.474 166.473 139.397C165.573 139.32 164.699 139.371 163.799 139.371C162.925 139.371 162.05 139.474 161.15 139.525H160.944L160.919 139.32C160.456 134.537 160.044 129.754 159.607 124.971L158.99 117.771L158.45 110.571L159.221 117.745L159.967 124.919C160.43 129.702 160.919 134.511 161.33 139.294L161.124 139.114C161.999 139.062 162.899 138.985 163.799 138.96C164.699 138.985 165.599 138.934 166.499 139.037C168.274 139.088 170.048 139.397 171.797 139.757C173.545 140.142 175.268 140.682 176.914 141.325C178.586 142.02 180.18 142.817 181.672 143.82Z" fill="url(#paint16_linear_8631_1029)"/>
<path d="M181.672 143.82C180.335 142.74 178.894 141.866 177.377 141.094C175.886 140.323 174.317 139.628 172.722 139.088C171.128 138.548 169.482 138.137 167.811 137.854C166.165 137.546 164.468 137.443 162.77 137.391H162.59V137.211C162.127 132.377 161.767 127.543 161.356 122.708L160.816 115.431L160.302 108.18L161.047 115.431L161.716 122.683C162.153 127.517 162.59 132.326 162.976 137.186L162.796 136.98C164.493 137.057 166.191 137.16 167.888 137.494C169.559 137.777 171.205 138.24 172.825 138.831C174.42 139.397 175.988 140.091 177.454 140.94C178.946 141.763 180.386 142.714 181.672 143.82Z" fill="url(#paint17_linear_8631_1029)"/>
<path d="M209.471 91.9799L181.363 75.7798L153.384 91.9799H150.529V93.6256L181.415 111.42L212.248 93.5999V91.9799H209.471Z" fill="url(#paint18_linear_8631_1029)"/>
<path d="M181.415 111.42L164.005 101.391V108.231C164.005 110.828 165.702 113.4 169.096 115.354C175.86 119.263 186.969 119.263 193.733 115.328C195.43 114.351 196.69 113.22 197.539 112.011C198.387 110.802 198.799 109.491 198.799 108.205V101.365L181.415 111.42Z" fill="url(#paint19_linear_8631_1029)"/>
<path d="M181.363 74.1851L150.529 92.0309L181.415 109.825L212.248 91.9795L181.363 74.1851Z" fill="url(#paint20_linear_8631_1029)"/>
<g style="mix-blend-mode:multiply">
<path d="M198.799 103.757V101.365L181.415 111.42L164.005 101.391V103.782L181.415 113.837L198.799 103.757Z" fill="#DCE8EF"/>
</g>
<path d="M184.295 92.0051C184.295 92.9565 182.983 93.728 181.389 93.728C179.794 93.728 178.483 92.9565 178.483 92.0051C178.483 91.0537 179.794 90.2822 181.389 90.2822C182.983 90.2822 184.295 91.0537 184.295 92.0051Z" fill="url(#paint21_linear_8631_1029)"/>
<path d="M197.024 116.536C196.69 116.536 196.407 116.253 196.407 115.919V112.293C196.407 111.959 196.69 111.676 197.024 111.676C197.358 111.676 197.641 111.959 197.641 112.293V115.919C197.641 116.253 197.358 116.536 197.024 116.536Z" fill="url(#paint22_linear_8631_1029)"/>
<path d="M197.025 114.275C196.562 114.275 196.201 113.889 196.201 113.452V112.577C196.201 112.114 196.562 111.753 197.025 111.753C197.462 111.753 197.848 112.114 197.848 112.577V113.452C197.848 113.889 197.462 114.275 197.025 114.275Z" fill="url(#paint23_radial_8631_1029)"/>
<path d="M197.024 112.705C196.793 112.705 196.613 112.525 196.613 112.294V101.031L181.569 92.3652C181.363 92.2366 181.312 92.0052 181.414 91.7995C181.543 91.5938 181.774 91.5423 181.98 91.6452L197.23 100.44C197.359 100.517 197.436 100.645 197.436 100.8V112.294C197.436 112.525 197.256 112.705 197.024 112.705Z" fill="url(#paint24_linear_8631_1029)"/>
<path d="M215.592 70.3279L216.594 72.3593L218.858 72.6936C219.32 72.7707 219.526 73.3622 219.166 73.6965L217.546 75.2908L217.932 77.5279C218.009 77.9908 217.52 78.3765 217.083 78.1451L215.052 77.0908L213.046 78.1451C212.608 78.3765 212.12 77.9908 212.197 77.5279L212.583 75.2908L210.963 73.6965C210.603 73.3622 210.783 72.7707 211.271 72.6936L213.534 72.3593L214.537 70.3279C214.743 69.8907 215.386 69.8907 215.592 70.3279Z" fill="url(#paint25_radial_8631_1029)"/>
<path d="M200.008 70.3279L201.011 72.3593L203.248 72.6936C203.736 72.7707 203.942 73.3622 203.582 73.6965L201.962 75.2908L202.348 77.5279C202.425 77.9908 201.911 78.3765 201.473 78.1451L199.468 77.0908L197.462 78.1451C197.025 78.3765 196.51 77.9908 196.613 77.5279L196.999 75.2908L195.353 73.6965C195.019 73.3622 195.199 72.7707 195.687 72.6936L197.95 72.3593L198.953 70.3279C199.159 69.8907 199.776 69.8907 200.008 70.3279Z" fill="url(#paint26_radial_8631_1029)"/>
<path d="M165.676 70.3279L166.705 72.3593L168.942 72.6936C169.431 72.7707 169.611 73.3622 169.276 73.6965L167.631 75.2908L168.016 77.5279C168.119 77.9908 167.605 78.3765 167.168 78.1451L165.162 77.0908L163.156 78.1451C162.719 78.3765 162.204 77.9908 162.282 77.5279L162.667 75.2908L161.047 73.6965C160.687 73.3622 160.893 72.7707 161.382 72.6936L163.619 72.3593L164.622 70.3279C164.853 69.8907 165.47 69.8907 165.676 70.3279Z" fill="url(#paint27_radial_8631_1029)"/>
<path d="M150.092 70.3279L151.095 72.3593L153.358 72.6936C153.847 72.7707 154.027 73.3622 153.692 73.6965L152.047 75.2908L152.432 77.5279C152.509 77.9908 152.021 78.3765 151.584 78.1451L149.578 77.0908L147.546 78.1451C147.135 78.3765 146.62 77.9908 146.698 77.5279L147.083 75.2908L145.463 73.6965C145.103 73.3622 145.309 72.7707 145.772 72.6936L148.035 72.3593L149.038 70.3279C149.269 69.8907 149.886 69.8907 150.092 70.3279Z" fill="url(#paint28_radial_8631_1029)"/>
<g clip-path="url(#clip1_8631_1029)">
<path d="M12.96 101.43L14.455 118.336L37.0335 116.34L35.0785 94.2315L17.8124 95.7583C14.8784 96.0177 12.7059 98.5569 12.96 101.43ZM20.6674 105.336L23.3238 105.101L23.0937 102.5C23.0302 101.782 23.5734 101.147 24.3069 101.082C25.0405 101.017 25.6866 101.547 25.7501 102.265L25.9801 104.866L28.6365 104.631C29.3697 104.566 30.0162 105.096 30.0797 105.814C30.1432 106.532 29.6001 107.167 28.8665 107.232L26.2101 107.467L26.4401 110.068C26.5036 110.786 25.9605 111.421 25.227 111.486C24.4934 111.551 23.8473 111.021 23.7838 110.303L23.5538 107.702L20.8974 107.937C20.1638 108.002 19.5177 107.472 19.4542 106.754C19.3907 106.035 19.9338 105.401 20.6674 105.336Z" fill="#111111"/>
<path d="M55.001 92.4693L37.7349 93.9961L39.6898 116.104L62.2684 114.108L60.7734 97.2012C60.5193 94.3284 57.935 92.2098 55.001 92.4693ZM54.101 105L46.1322 105.705C45.3987 105.77 44.7526 105.24 44.689 104.521C44.6255 103.803 45.1686 103.168 45.9022 103.104L53.871 102.399C54.6046 102.334 55.2507 102.864 55.3142 103.582C55.3777 104.301 54.8346 104.935 54.101 105Z" fill="#111111"/>
<path d="M16.1801 137.843C16.4341 140.716 19.0185 142.835 21.9524 142.575L39.2186 141.049L37.2636 118.94L14.6851 120.937L16.1801 137.843ZM23.0332 129.486C22.4778 129.014 22.4197 128.19 22.903 127.644C23.3747 127.112 24.1907 127.04 24.7485 127.481L26.7894 129.154L28.5047 127.149C28.9884 126.603 29.8305 126.543 30.3858 127.015C30.9272 127.475 30.9979 128.274 30.5456 128.822L28.8299 130.827L30.8708 132.5C31.4424 132.952 31.5298 133.774 31.0659 134.336C30.602 134.897 29.7624 134.986 29.1908 134.534C29.1786 134.524 29.1671 134.515 29.1551 134.504L27.1146 132.832L25.3989 134.837C24.9156 135.383 24.0735 135.443 23.5182 134.971C22.9764 134.511 22.9058 133.712 23.3584 133.164L25.0737 131.159L23.0332 129.486Z" fill="#111111"/>
<path d="M41.8749 140.814L59.141 139.287C62.075 139.027 64.2475 136.488 63.9934 133.615L62.4984 116.709L39.9199 118.706L41.8749 140.814ZM47.8573 125.212L55.8261 124.508C56.5597 124.443 57.2057 124.972 57.2693 125.691C57.3328 126.409 56.7897 127.044 56.0561 127.109L48.0873 127.813C47.3537 127.878 46.7076 127.349 46.6441 126.63C46.5806 125.912 47.1237 125.277 47.8573 125.212ZM48.3173 130.414L56.286 129.709C57.0196 129.644 57.6657 130.174 57.7292 130.892C57.7928 131.611 57.2496 132.246 56.5161 132.31L48.5473 133.015C47.8137 133.08 47.1676 132.55 47.1041 131.832C47.0406 131.114 47.5837 130.479 48.3173 130.414Z" fill="#111111"/>
</g>
<g clip-path="url(#clip2_8631_1029)">
<path d="M76.5548 175.401C65.4044 174.399 55.4636 182.923 54.4975 194.318C54.1752 198.119 54.88 201.764 56.3749 204.971C56.5282 205.3 56.5328 205.681 56.3866 206.014L53.7101 212.117C53.324 212.998 54.0191 213.97 54.9569 213.861L62.4684 212.989C62.7554 212.956 63.045 213.027 63.2835 213.192C66.0694 215.124 69.368 216.371 72.9683 216.674C84.1141 217.611 93.9581 209.112 94.913 197.727C95.8657 186.368 87.6553 176.398 76.5548 175.401ZM63.4859 197.545C63.4074 198.481 62.601 199.177 61.6849 199.1C60.7688 199.023 60.0896 198.202 60.1681 197.267L60.5769 192.394C60.6554 191.458 61.4617 190.762 62.3779 190.839C63.294 190.915 63.9731 191.736 63.8946 192.672L63.4859 197.545ZM69.5238 201.636C69.4453 202.572 68.6389 203.268 67.7228 203.191C66.8067 203.115 66.1276 202.294 66.2061 201.358L67.212 189.366C67.2905 188.43 68.0968 187.734 69.013 187.81C69.9291 187.887 70.6082 188.708 70.5297 189.644L69.5238 201.636ZM76.1589 198.608C76.0804 199.544 75.274 200.24 74.3579 200.163C73.4418 200.086 72.7627 199.265 72.8412 198.33L73.2499 193.457C73.3284 192.521 74.1348 191.825 75.0509 191.902C75.967 191.978 76.6461 192.799 76.5676 193.735L76.1589 198.608ZM82.3378 201.017C82.2593 201.953 81.453 202.649 80.5368 202.573C79.6207 202.496 78.9416 201.675 79.0201 200.739L79.7438 192.11C79.8223 191.175 80.6287 190.478 81.5448 190.555C82.4609 190.632 83.1401 191.453 83.0616 192.389L82.3378 201.017ZM88.9449 198.321C88.8664 199.257 88.0601 199.953 87.1439 199.877C86.2278 199.8 85.5487 198.979 85.6272 198.043L85.8095 195.869C85.888 194.934 86.6944 194.237 87.6105 194.314C88.5266 194.391 89.2058 195.212 89.1273 196.148L88.9449 198.321Z" fill="#111111"/>
<path d="M106.366 201.603C106.277 201.251 106.345 200.876 106.551 200.578C108.556 197.669 109.857 194.199 110.175 190.405C111.132 179.005 102.859 169.004 91.6982 168.068C86.5431 167.636 81.6999 169.19 77.8681 172.126C90.7653 173.85 99.3149 185.729 98.2306 198.005C97.915 201.836 96.6962 205.552 94.6697 208.841C95.9581 208.517 97.2108 208.074 98.3697 207.532C98.6324 207.409 98.9291 207.388 99.2063 207.468L106.468 209.579C107.375 209.843 108.222 209 107.988 208.068L106.366 201.603Z" fill="#111111"/>
</g>
<g clip-path="url(#clip3_8631_1029)">
<path d="M257.878 169.31C255.432 169.442 253.436 171.118 252.784 173.342C252.655 173.78 252.747 174.253 253.031 174.611C253.314 174.969 253.754 175.167 254.21 175.142L263.799 174.622C263.631 171.52 260.98 169.141 257.878 169.31Z" fill="#111111"/>
<path d="M280.872 210.499C280.673 212.711 279.718 214.711 278.287 216.273L296.764 215.27C299.357 215.129 301.549 213.593 302.651 211.431C302.879 210.982 302.851 210.446 302.576 210.025C302.302 209.603 301.823 209.362 301.321 209.389L280.871 210.499L280.872 210.499Z" fill="#111111"/>
<path d="M288.546 167.645L264.111 168.971C265.118 169.972 267.978 172.176 266.267 184.52C265.167 192.994 262.413 201.845 262.95 210.349C263.306 214.077 266.534 216.91 270.308 216.705C274.179 216.495 277.158 213.174 276.948 209.303C276.906 208.527 277.5 207.865 278.276 207.823L292.123 207.071C292.057 201.993 293.064 196.829 294.041 191.819C295.155 186.099 296.265 180.129 295.948 174.284C295.738 170.413 292.417 167.435 288.546 167.645ZM287.399 198.69L269.636 199.654C268.861 199.696 268.198 199.102 268.156 198.326C268.114 197.551 268.708 196.888 269.484 196.846L287.247 195.882C288.022 195.839 288.685 196.434 288.727 197.21C288.769 197.985 288.175 198.648 287.399 198.69ZM288.43 193.001L270.704 193.963C269.928 194.005 269.265 193.41 269.223 192.635C269.181 191.859 269.776 191.197 270.551 191.154L288.277 190.192C289.053 190.15 289.715 190.745 289.757 191.52C289.8 192.296 289.205 192.959 288.43 193.001ZM289.497 187.31L271.693 188.276C270.918 188.318 270.255 187.723 270.213 186.948C270.171 186.172 270.765 185.51 271.541 185.467L289.344 184.501C290.12 184.459 290.783 185.054 290.825 185.829C290.867 186.605 290.272 187.267 289.497 187.31ZM290.263 181.635L272.36 182.606C271.585 182.648 270.922 182.054 270.88 181.278C270.838 180.503 271.432 179.84 272.208 179.798L290.111 178.826C290.886 178.784 291.549 179.379 291.591 180.154C291.633 180.93 291.039 181.593 290.263 181.635Z" fill="#111111"/>
</g>
<g clip-path="url(#clip4_8631_1029)">
<path d="M327.448 19.3103L288.405 22.4146C286.258 22.5854 284.637 24.4452 284.804 26.5466L287.234 57.1166C287.402 59.2173 289.296 60.7983 291.443 60.6276L309.012 59.2306L309.316 63.0515L303.46 63.5172C301.303 63.6886 299.691 65.5369 299.859 67.6491L323.285 65.7824C323.117 63.6743 321.233 62.1005 319.076 62.272L313.22 62.7376L312.916 58.9202L330.486 57.5232C332.633 57.3525 334.254 55.4921 334.087 53.3913L331.656 22.8213C331.489 20.72 329.595 19.1396 327.448 19.3103ZM302.293 45.228L300.384 47.4188L294.507 42.516C293.685 41.8298 293.589 40.621 294.292 39.8139L299.32 34.044L301.552 35.9056L297.16 40.9449L302.293 45.228ZM309.677 48.6024L306.675 48.8412L309.214 31.3349L312.216 31.0961L309.677 48.6024ZM324.598 40.1234L319.57 45.8933L317.339 44.0317L321.731 38.9919L316.597 34.7099L318.507 32.5191L324.384 37.4219C325.205 38.1037 325.301 39.3165 324.598 40.1234Z" fill="#111111"/>
</g>
<g clip-path="url(#clip5_8631_1029)">
<path d="M327.151 107.028C329.681 107.319 331.968 105.503 332.259 102.973C332.55 100.442 330.735 98.1552 328.204 97.8642C325.674 97.5733 323.387 99.3888 323.096 101.919C322.805 104.45 324.62 106.737 327.151 107.028Z" fill="#111111"/>
<path d="M330.205 107.379L327.151 107.028L324.096 106.677C321.57 106.386 319.278 108.205 318.988 110.732L318.812 112.259C318.715 113.102 319.32 113.865 320.164 113.962L332.382 115.367C333.225 115.464 333.988 114.858 334.085 114.015L334.26 112.488C334.551 109.961 332.732 107.67 330.205 107.379Z" fill="#111111"/>
<path d="M340.018 116.245C342.549 116.536 344.836 114.72 345.127 112.19C345.418 109.659 343.602 107.372 341.072 107.081C338.541 106.79 336.254 108.606 335.963 111.136C335.672 113.667 337.488 115.954 340.018 116.245Z" fill="#111111"/>
<path d="M312.527 113.084C315.058 113.375 317.345 111.559 317.636 109.029C317.927 106.499 316.111 104.211 313.581 103.92C311.05 103.629 308.763 105.445 308.472 107.975C308.181 110.506 309.997 112.793 312.527 113.084Z" fill="#111111"/>
<path d="M305.54 120.018L311.726 120.729C314.142 119.318 316.815 118.337 319.646 117.881C319.579 115.629 317.884 113.7 315.582 113.435L312.527 113.084L309.473 112.733C306.946 112.442 304.655 114.261 304.364 116.788L304.188 118.315C304.091 119.159 304.697 119.921 305.54 120.018Z" fill="#111111"/>
<path d="M339.063 123.872L345.249 124.584C346.093 124.681 346.855 124.075 346.952 123.232L347.128 121.705C347.418 119.178 345.6 116.887 343.073 116.596L340.018 116.245L336.964 115.894C334.662 115.629 332.573 117.123 331.997 119.301C334.65 120.388 337.031 121.95 339.063 123.872Z" fill="#111111"/>
<path d="M325.746 119.246C313.943 117.889 303.264 126.383 301.906 138.17L344.669 143.086C346.021 131.299 337.549 120.603 325.746 119.246ZM312.772 137.871L308.19 137.345L308.629 133.526C308.678 133.105 309.059 132.802 309.481 132.851L312.535 133.202C312.957 133.25 313.26 133.631 313.211 134.053L312.772 137.871ZM318.881 138.574L314.299 138.047L315.441 128.12C315.489 127.698 315.871 127.395 316.292 127.444L319.347 127.795C319.769 127.844 320.071 128.225 320.023 128.647L318.881 138.574ZM324.99 139.276L320.409 138.749L322.252 122.713C322.301 122.291 322.682 121.989 323.104 122.037L326.158 122.388C326.58 122.437 326.883 122.818 326.834 123.24L324.99 139.276ZM331.1 139.979L326.518 139.452L327.835 127.997C327.883 127.575 328.264 127.273 328.686 127.321L331.741 127.673C332.162 127.721 332.465 128.102 332.417 128.524L331.1 139.979ZM336.545 139.721L336.533 139.83C336.484 140.252 336.103 140.554 335.681 140.505C335.259 140.457 334.957 140.076 335.006 139.654L335.018 139.546C333.744 139.053 332.903 137.755 333.066 136.336C333.114 135.914 333.495 135.612 333.917 135.66C334.339 135.709 334.642 136.09 334.593 136.512C334.496 137.354 335.102 138.118 335.945 138.215C336.787 138.311 337.551 137.705 337.648 136.863C337.744 136.021 337.139 135.257 336.296 135.16C334.612 134.966 333.399 133.439 333.593 131.754C333.756 130.335 334.87 129.262 336.222 129.072L336.235 128.963C336.283 128.541 336.664 128.239 337.086 128.287C337.508 128.336 337.811 128.717 337.762 129.139L337.75 129.247C339.024 129.74 339.865 131.037 339.702 132.457C339.653 132.879 339.272 133.181 338.85 133.132C338.428 133.084 338.126 132.703 338.174 132.281C338.271 131.439 337.665 130.675 336.823 130.578C335.98 130.481 335.217 131.088 335.12 131.93C335.023 132.772 335.629 133.536 336.472 133.633C338.155 133.826 339.369 135.354 339.175 137.038C339.012 138.458 337.898 139.531 336.545 139.721Z" fill="#111111"/>
</g>
<defs>
<linearGradient id="paint0_linear_8631_1029" x1="200.197" y1="47.981" x2="255.089" y2="143.063" gradientUnits="userSpaceOnUse">
<stop stop-color="#DA006A"/>
<stop offset="1" stop-color="#733BE4"/>
</linearGradient>
<linearGradient id="paint1_linear_8631_1029" x1="197.262" y1="58.9478" x2="244.124" y2="140.121" gradientUnits="userSpaceOnUse">
<stop stop-color="#EEBD2F"/>
<stop offset="1" stop-color="#DA5618"/>
</linearGradient>
<linearGradient id="paint2_linear_8631_1029" x1="204.287" y1="155.443" x2="178.516" y2="146.158" gradientUnits="userSpaceOnUse">
<stop stop-color="#5899FF"/>
<stop offset="1" stop-color="#4F39EE"/>
</linearGradient>
<linearGradient id="paint3_linear_8631_1029" x1="212.59" y1="152.461" x2="203.143" y2="150.275" gradientUnits="userSpaceOnUse">
<stop stop-color="#5899FF"/>
<stop offset="1" stop-color="#4F39EE"/>
</linearGradient>
<linearGradient id="paint4_linear_8631_1029" x1="210.366" y1="149.719" x2="201.551" y2="148.413" gradientUnits="userSpaceOnUse">
<stop stop-color="#F1CC60"/>
<stop offset="0.31" stop-color="#F5E2AA"/>
<stop offset="1" stop-color="#E59F2F"/>
</linearGradient>
<linearGradient id="paint5_linear_8631_1029" x1="206.66" y1="160.653" x2="181.996" y2="150.338" gradientUnits="userSpaceOnUse">
<stop stop-color="#F1CC60"/>
<stop offset="0.31" stop-color="#F5E2AA"/>
<stop offset="1" stop-color="#E59F2F"/>
</linearGradient>
<linearGradient id="paint6_linear_8631_1029" x1="181.666" y1="107.215" x2="203.027" y2="107.215" gradientUnits="userSpaceOnUse">
<stop stop-color="#F1CC60"/>
<stop offset="0.31" stop-color="#F5E2AA"/>
<stop offset="1" stop-color="#E59F2F"/>
</linearGradient>
<linearGradient id="paint7_linear_8631_1029" x1="205.275" y1="98.9961" x2="225.069" y2="133.283" gradientUnits="userSpaceOnUse">
<stop stop-color="#F1CC60"/>
<stop offset="0.31" stop-color="#F5E2AA"/>
<stop offset="1" stop-color="#E59F2F"/>
</linearGradient>
<linearGradient id="paint8_linear_8631_1029" x1="208.105" y1="95.0657" x2="228.428" y2="130.269" gradientUnits="userSpaceOnUse">
<stop stop-color="#F1CC60"/>
<stop offset="0.31" stop-color="#F5E2AA"/>
<stop offset="1" stop-color="#E59F2F"/>
</linearGradient>
<linearGradient id="paint9_linear_8631_1029" x1="211.858" y1="90.503" x2="232.752" y2="126.695" gradientUnits="userSpaceOnUse">
<stop stop-color="#F1CC60"/>
<stop offset="0.31" stop-color="#F5E2AA"/>
<stop offset="1" stop-color="#E59F2F"/>
</linearGradient>
<linearGradient id="paint10_linear_8631_1029" x1="159.044" y1="155.443" x2="184.815" y2="146.158" gradientUnits="userSpaceOnUse">
<stop stop-color="#5899FF"/>
<stop offset="1" stop-color="#4F39EE"/>
</linearGradient>
<linearGradient id="paint11_linear_8631_1029" x1="150.741" y1="152.461" x2="160.188" y2="150.275" gradientUnits="userSpaceOnUse">
<stop stop-color="#5899FF"/>
<stop offset="1" stop-color="#4F39EE"/>
</linearGradient>
<linearGradient id="paint12_linear_8631_1029" x1="152.965" y1="149.719" x2="161.78" y2="148.413" gradientUnits="userSpaceOnUse">
<stop stop-color="#F1CC60"/>
<stop offset="0.31" stop-color="#F5E2AA"/>
<stop offset="1" stop-color="#E59F2F"/>
</linearGradient>
<linearGradient id="paint13_linear_8631_1029" x1="156.671" y1="160.653" x2="181.335" y2="150.338" gradientUnits="userSpaceOnUse">
<stop stop-color="#F1CC60"/>
<stop offset="0.31" stop-color="#F5E2AA"/>
<stop offset="1" stop-color="#E59F2F"/>
</linearGradient>
<linearGradient id="paint14_linear_8631_1029" x1="181.666" y1="107.215" x2="160.305" y2="107.215" gradientUnits="userSpaceOnUse">
<stop stop-color="#F1CC60"/>
<stop offset="0.31" stop-color="#F5E2AA"/>
<stop offset="1" stop-color="#E59F2F"/>
</linearGradient>
<linearGradient id="paint15_linear_8631_1029" x1="200.063" y1="123.247" x2="180.269" y2="157.533" gradientUnits="userSpaceOnUse">
<stop stop-color="#F1CC60"/>
<stop offset="0.31" stop-color="#F5E2AA"/>
<stop offset="1" stop-color="#E59F2F"/>
</linearGradient>
<linearGradient id="paint16_linear_8631_1029" x1="205.292" y1="123.969" x2="184.969" y2="159.172" gradientUnits="userSpaceOnUse">
<stop stop-color="#F1CC60"/>
<stop offset="0.31" stop-color="#F5E2AA"/>
<stop offset="1" stop-color="#E59F2F"/>
</linearGradient>
<linearGradient id="paint17_linear_8631_1029" x1="211.481" y1="125.146" x2="190.587" y2="161.337" gradientUnits="userSpaceOnUse">
<stop stop-color="#F1CC60"/>
<stop offset="0.31" stop-color="#F5E2AA"/>
<stop offset="1" stop-color="#E59F2F"/>
</linearGradient>
<linearGradient id="paint18_linear_8631_1029" x1="173.403" y1="54.2388" x2="217.258" y2="105.968" gradientUnits="userSpaceOnUse">
<stop stop-color="#5899FF"/>
<stop offset="1" stop-color="#4F39EE"/>
</linearGradient>
<linearGradient id="paint19_linear_8631_1029" x1="163.882" y1="101.368" x2="188.165" y2="101.368" gradientUnits="userSpaceOnUse">
<stop stop-color="#514FF2"/>
<stop offset="0.305" stop-color="#5899FF"/>
<stop offset="1" stop-color="#4F39EE"/>
</linearGradient>
<linearGradient id="paint20_linear_8631_1029" x1="175.568" y1="51.7345" x2="246.193" y2="150.159" gradientUnits="userSpaceOnUse">
<stop stop-color="#5899FF"/>
<stop offset="1" stop-color="#4F39EE"/>
</linearGradient>
<linearGradient id="paint21_linear_8631_1029" x1="180.872" y1="88.1441" x2="187.592" y2="97.509" gradientUnits="userSpaceOnUse">
<stop stop-color="#5899FF"/>
<stop offset="1" stop-color="#4F39EE"/>
</linearGradient>
<linearGradient id="paint22_linear_8631_1029" x1="196.409" y1="111.681" x2="197.633" y2="111.681" gradientUnits="userSpaceOnUse">
<stop stop-color="#EEBD2F"/>
<stop offset="1" stop-color="#DA5618"/>
</linearGradient>
<radialGradient id="paint23_radial_8631_1029" cx="0" cy="0" r="1" gradientUnits="userSpaceOnUse" gradientTransform="translate(197.022 113.007) scale(1.06121 1.0612)">
<stop stop-color="#E79927"/>
<stop offset="1" stop-color="#DD661C"/>
</radialGradient>
<linearGradient id="paint24_linear_8631_1029" x1="181.365" y1="91.5943" x2="197.429" y2="91.5943" gradientUnits="userSpaceOnUse">
<stop stop-color="#EEBD2F"/>
<stop offset="1" stop-color="#DA5618"/>
</linearGradient>
<radialGradient id="paint25_radial_8631_1029" cx="0" cy="0" r="1" gradientUnits="userSpaceOnUse" gradientTransform="translate(213.555 73.3416) rotate(33.0528) scale(3.98768 3.98757)">
<stop stop-color="#E79927"/>
<stop offset="1" stop-color="#DD661C"/>
</radialGradient>
<radialGradient id="paint26_radial_8631_1029" cx="0" cy="0" r="1" gradientUnits="userSpaceOnUse" gradientTransform="translate(197.967 73.3416) rotate(33.0528) scale(3.98768 3.98757)">
<stop stop-color="#E79927"/>
<stop offset="1" stop-color="#DD661C"/>
</radialGradient>
<radialGradient id="paint27_radial_8631_1029" cx="0" cy="0" r="1" gradientUnits="userSpaceOnUse" gradientTransform="translate(163.651 73.3416) rotate(33.056) scale(3.98782 3.98771)">
<stop stop-color="#E79927"/>
<stop offset="1" stop-color="#DD661C"/>
</radialGradient>
<radialGradient id="paint28_radial_8631_1029" cx="0" cy="0" r="1" gradientUnits="userSpaceOnUse" gradientTransform="translate(148.062 73.3416) rotate(33.056) scale(3.98782 3.98771)">
<stop stop-color="#E79927"/>
<stop offset="1" stop-color="#DD661C"/>
</radialGradient>
<clipPath id="clip0_8631_1029">
<rect width="48" height="46" fill="white" transform="translate(56.0793 19) rotate(4.46274)"/>
</clipPath>
<clipPath id="clip1_8631_1029">
<rect width="48" height="47" fill="white" transform="translate(12.5 96.228) rotate(-5.05341)"/>
</clipPath>
<clipPath id="clip2_8631_1029">
<rect width="55.1559" height="56.3295" fill="white" transform="translate(57.2083 162) rotate(4.7947)"/>
</clipPath>
<clipPath id="clip3_8631_1029">
<rect width="48" height="48" fill="white" transform="translate(252.5 169.602) rotate(-3.1067)"/>
</clipPath>
<clipPath id="clip4_8631_1029">
<rect width="47" height="46" fill="white" transform="translate(284.5 22.7251) rotate(-4.54604)"/>
</clipPath>
<clipPath id="clip5_8631_1029">
<rect width="49.1949" height="49.1949" fill="white" transform="translate(304.119 92) rotate(6.5589)"/>
</clipPath>
</defs>
</svg>
