<svg width="28" height="25" viewBox="0 0 28 25" fill="none" xmlns="http://www.w3.org/2000/svg">
<path d="M4.32522 9.68371C3.9814 12.3157 3.77653 14.9639 3.71147 17.6175C7.30997 19.1206 10.7554 20.9666 14.0002 23.13C17.2454 20.9665 20.6913 19.1205 24.2902 17.6175C24.2251 14.9639 24.0202 12.3157 23.6765 9.68371M23.6765 9.68371C24.7702 9.31621 25.879 8.97621 26.999 8.66621C22.9197 5.80652 18.5652 3.36107 14.0002 1.36621C9.43521 3.36149 5.08071 5.80736 1.00146 8.66746C2.11806 8.97574 3.22597 9.31462 4.32396 9.68371C7.65974 10.8052 10.8963 12.2026 14.0002 13.8612C17.1037 12.2025 20.3411 10.8052 23.6765 9.68371ZM7.43772 15.75C7.68636 15.75 7.92481 15.6512 8.10063 15.4754C8.27644 15.2996 8.37522 15.0611 8.37522 14.8125C8.37522 14.5638 8.27644 14.3254 8.10063 14.1495C7.92481 13.9737 7.68636 13.875 7.43772 13.875C7.18907 13.875 6.95062 13.9737 6.7748 14.1495C6.59899 14.3254 6.50022 14.5638 6.50022 14.8125C6.50022 15.0611 6.59899 15.2996 6.7748 15.4754C6.95062 15.6512 7.18907 15.75 7.43772 15.75ZM7.43772 15.75V11.1562C9.55863 9.83788 11.7493 8.63529 14.0002 7.55371M5.24147 21.9912C5.93893 21.2955 6.49201 20.4687 6.86892 19.5585C7.24583 18.6483 7.43913 17.6726 7.43772 16.6875V14.8125" stroke="#FE5933" stroke-width="2" stroke-linecap="round" stroke-linejoin="round"/>
</svg>
