<?xml version="1.0" standalone="no"?>
<!DOCTYPE svg PUBLIC "-//W3C//DTD SVG 20010904//EN"
 "http://www.w3.org/TR/2001/REC-SVG-20010904/DTD/svg10.dtd">
<svg version="1.0" xmlns="http://www.w3.org/2000/svg"
 width="980.000000pt" height="980.000000pt" viewBox="0 0 980.000000 980.000000"
 preserveAspectRatio="xMidYMid meet">

<g transform="translate(0.000000,980.000000) scale(0.100000,-0.100000)"
fill="#000000" stroke="none">
<path d="M4702 9779 c-193 -34 -439 -169 -567 -312 -426 -473 -364 -1180 137
-1557 127 -96 238 -147 403 -185 l100 -24 -300 0 c-439 -2 -539 -17 -740 -116
-306 -149 -507 -420 -570 -768 -13 -69 -16 -141 -13 -345 3 -253 3 -258 29
-312 49 -105 137 -178 239 -200 41 -8 438 -10 1510 -8 l1455 3 57 27 c71 33
138 101 175 176 l28 57 2 245 c1 135 -3 279 -8 320 -61 480 -451 860 -931 910
-55 5 -231 10 -392 11 l-291 0 100 24 c170 39 299 101 430 206 122 99 209 208
282 354 81 162 107 281 106 480 -1 116 -6 157 -27 238 -80 304 -280 549 -560
686 -162 80 -221 93 -426 97 -96 1 -199 -1 -228 -7z"/>
<path d="M7925 8039 c-539 -68 -940 -533 -920 -1069 18 -515 357 -901 885
-1009 32 -6 -46 -9 -260 -10 -315 -1 -425 -9 -545 -40 -339 -87 -618 -352
-729 -692 -13 -42 -27 -97 -31 -121 l-7 -44 216 -72 c503 -166 919 -377 1408
-715 l96 -67 724 0 c795 0 777 -1 878 61 75 46 127 125 150 230 20 90 7 519
-19 631 -46 197 -124 344 -261 490 -123 133 -262 222 -428 278 -143 48 -264
59 -617 61 l-310 1 90 18 c130 26 261 79 370 148 59 39 92 66 174 145 125 122
213 271 267 452 36 120 45 356 19 484 -44 216 -131 378 -288 535 -179 179
-373 274 -627 306 -88 11 -139 11 -235 -1z"/>
<path d="M1540 8024 c-159 -35 -313 -107 -435 -204 -332 -264 -470 -681 -364
-1095 48 -187 186 -407 325 -516 30 -24 68 -54 82 -67 81 -68 295 -153 446
-177 21 -4 36 -9 33 -12 -3 -2 -136 -4 -295 -3 -159 0 -331 -4 -383 -10 -252
-29 -456 -126 -630 -300 -169 -168 -258 -337 -300 -570 -24 -137 -27 -527 -4
-603 23 -77 63 -139 118 -185 96 -80 59 -76 890 -80 l738 -3 62 46 c444 326
1016 612 1547 775 58 17 106 33 108 35 2 2 -6 42 -17 90 -73 307 -298 578
-586 708 -177 79 -309 97 -704 97 -161 -1 -295 1 -298 3 -2 3 15 8 39 12 87
13 195 48 293 94 274 129 485 389 559 690 27 108 28 124 23 280 -4 142 -8 179
-31 255 -84 280 -266 502 -528 645 -62 34 -218 86 -302 101 -83 14 -308 11
-386 -6z"/>
<path d="M4645 4890 c-88 -4 -178 -10 -200 -13 -22 -4 -67 -9 -100 -12 -33 -3
-121 -15 -195 -26 -928 -140 -1823 -566 -2530 -1204 -87 -78 -317 -311 -391
-395 -578 -657 -978 -1468 -1138 -2310 -48 -255 -91 -653 -91 -857 l0 -73
4900 0 4900 0 0 38 c0 78 -21 373 -35 507 -46 416 -153 849 -303 1230 -306
777 -766 1416 -1428 1985 -79 69 -333 257 -449 333 -743 487 -1576 756 -2470
797 -216 10 -231 10 -470 0z m498 -704 c39 -16 82 -61 96 -99 8 -20 11 -597
11 -1883 l0 -1854 -525 0 -525 0 0 1862 0 1861 25 42 c16 28 39 50 67 64 42
20 56 21 431 21 307 0 394 -3 420 -14z m1400 -1050 c39 -16 82 -61 96 -99 8
-20 11 -443 11 -1358 l0 -1329 -527 2 -528 3 -3 1265 c-2 696 0 1297 3 1337 8
87 40 144 100 173 38 19 61 20 428 20 307 0 394 -3 420 -14z m1232 -5 c22 -10
47 -27 56 -37 17 -19 49 -103 49 -127 0 -7 35 -28 79 -45 244 -100 413 -325
437 -582 9 -91 -1 -133 -39 -177 -58 -66 -147 -82 -222 -40 -51 29 -81 83 -88
161 -13 136 -88 249 -201 305 -106 52 -255 37 -352 -35 -63 -47 -97 -94 -123
-172 -26 -76 -26 -133 -3 -209 23 -72 55 -122 108 -164 65 -53 117 -70 253
-84 70 -8 157 -23 192 -35 205 -68 376 -242 446 -455 23 -70 27 -96 27 -210 0
-114 -4 -140 -27 -210 -68 -206 -229 -373 -429 -446 -54 -20 -57 -23 -63 -63
-23 -142 -192 -207 -294 -113 -29 27 -60 93 -61 128 0 23 -8 29 -62 49 -258
94 -440 335 -455 601 -5 79 -3 102 12 133 38 79 158 119 234 79 64 -33 92 -81
102 -173 12 -105 44 -173 112 -237 74 -70 146 -96 252 -91 101 5 161 32 232
104 131 134 130 348 -1 479 -74 73 -126 95 -250 105 -196 16 -342 73 -459 180
-160 147 -237 318 -237 527 0 200 82 381 231 516 60 55 177 123 252 147 30 9
37 16 37 38 0 34 31 102 56 124 57 50 130 61 199 29z m-4032 -345 c39 -16 82
-61 96 -99 8 -19 11 -391 11 -1183 l0 -1154 -524 0 -524 0 -7 92 c-3 51 -5
570 -3 1153 l3 1061 25 49 c19 35 37 55 69 72 44 23 46 23 433 23 308 0 395
-3 421 -14z m-1400 -1400 c46 -21 75 -49 92 -90 13 -29 15 -111 15 -491 l0
-455 -525 0 -525 0 0 462 0 461 25 42 c16 28 39 50 67 64 42 20 56 21 431 21
317 0 394 -3 420 -14z"/>
</g>
</svg>
