<svg width="17" height="16" viewBox="0 0 17 16" fill="none" xmlns="http://www.w3.org/2000/svg">
<g clip-path="url(#clip0_7989_998)">
<path d="M16.3439 8.18417C16.3439 7.64035 16.2998 7.09359 16.2058 6.55859H8.65991V9.63925H12.9811C12.8018 10.6328 12.2256 11.5117 11.3819 12.0703V14.0692H13.9599C15.4738 12.6758 16.3439 10.6181 16.3439 8.18417Z" fill="#4285F4"/>
<path d="M8.65999 16.0007C10.8176 16.0007 12.6372 15.2923 13.9629 14.0694L11.385 12.0705C10.6677 12.5585 9.74174 12.8348 8.66293 12.8348C6.57584 12.8348 4.80623 11.4268 4.17128 9.53369H1.51099V11.5943C2.86906 14.2958 5.63518 16.0007 8.65999 16.0007Z" fill="#34A853"/>
<path d="M4.16827 9.53331C3.83316 8.53974 3.83316 7.46387 4.16827 6.4703V4.40967H1.51091C0.376245 6.67019 0.376245 9.33342 1.51091 11.5939L4.16827 9.53331Z" fill="#FBBC04"/>
<path d="M8.65999 3.16644C9.80053 3.1488 10.9029 3.57798 11.7289 4.36578L14.0129 2.08174C12.5667 0.72367 10.6471 -0.0229773 8.65999 0.000539111C5.63518 0.000539111 2.86906 1.70548 1.51099 4.40987L4.16834 6.4705C4.80035 4.57449 6.5729 3.16644 8.65999 3.16644Z" fill="#EA4335"/>
</g>
<defs>
<clipPath id="clip0_7989_998">
<rect width="16" height="16" fill="white" transform="translate(0.5)"/>
</clipPath>
</defs>
</svg>
