<svg width="40" height="40" viewBox="0 0 40 40" fill="none" xmlns="http://www.w3.org/2000/svg">
<g clip-path="url(#clip0_8059_72)">
<path d="M4.48783 0C2.44689 0 0.71056 1.30437 0.0671225 3.125C-0.0596744 3.48375 -0.00444003 3.88164 0.215326 4.19227C0.435091 4.50289 0.79181 4.6875 1.17228 4.6875H9.17533C9.17533 2.09867 7.07665 0 4.48783 0Z" fill="black"/>
<path d="M21.7612 35.3126C21.4957 37.1442 20.6109 38.7657 19.3495 40.0001H34.7703C36.934 40.0001 38.8273 38.8209 39.8419 37.0715C40.0522 36.7088 40.0529 36.2615 39.8434 35.8983C39.634 35.5352 39.2466 35.3125 38.8274 35.3125H21.7612V35.3126Z" fill="black"/>
<path d="M30.0828 0H9.69022C10.4826 0.878672 12.7631 2.84188 10.7821 13.0361C9.48421 20.0373 6.79249 27.278 6.85546 34.3785C6.98342 37.4969 9.54163 40 12.6908 40C15.9215 40 18.5502 37.3713 18.5502 34.1406C18.5502 33.4929 19.0744 32.9688 19.7221 32.9688H31.2787C31.4526 28.7402 32.5238 24.4887 33.5629 20.3642C34.7489 15.6548 35.9422 10.7373 35.9422 5.85938C35.9422 2.62867 33.3134 0 30.0828 0ZM27.7264 25.7812H12.902C12.2548 25.7812 11.7301 25.2566 11.7301 24.6094C11.7301 23.9622 12.2548 23.4375 12.902 23.4375H27.7264C28.3736 23.4375 28.8983 23.9622 28.8983 24.6094C28.8983 25.2566 28.3737 25.7812 27.7264 25.7812ZM28.8405 21.0938H14.0471C13.3999 21.0938 12.8752 20.5691 12.8752 19.9219C12.8752 19.2747 13.3999 18.75 14.0471 18.75H28.8405C29.4876 18.75 30.0123 19.2747 30.0123 19.9219C30.0123 20.5691 29.4877 21.0938 28.8405 21.0938ZM29.9856 16.4062H15.1275C14.4803 16.4062 13.9556 15.8816 13.9556 15.2344C13.9556 14.5872 14.4803 14.0625 15.1275 14.0625H29.9856C30.6328 14.0625 31.1575 14.5872 31.1575 15.2344C31.1575 15.8816 30.6329 16.4062 29.9856 16.4062ZM30.8796 11.7188H15.9386C15.2914 11.7188 14.7667 11.1941 14.7667 10.5469C14.7667 9.89969 15.2914 9.375 15.9386 9.375H30.8797C31.5269 9.375 32.0515 9.89969 32.0515 10.5469C32.0515 11.1941 31.5268 11.7188 30.8796 11.7188Z" fill="black"/>
</g>
<defs>
<clipPath id="clip0_8059_72">
<rect width="40" height="40" fill="white"/>
</clipPath>
</defs>
</svg>
