<svg width="40" height="36" viewBox="0 0 40 36" fill="none" xmlns="http://www.w3.org/2000/svg">
<path d="M14.7936 6.33472C6.67477 6.28784 0.0075064 12.9097 6.39752e-06 21.0301C-0.0024936 23.7388 0.727819 26.2764 2.00251 28.4568C2.13321 28.6805 2.15969 28.95 2.07423 29.1945L0.509928 33.6723C0.284303 34.3182 0.845553 34.9648 1.51665 34.8321L6.89219 33.7693C7.09758 33.7287 7.31118 33.7615 7.4936 33.8644C9.62399 35.0662 12.0834 35.7529 14.7036 35.7535C22.8153 35.7553 29.4141 29.1569 29.4141 21.0438C29.414 12.9489 22.8762 6.38128 14.7936 6.33472ZM6.69133 22.7803C6.69133 23.4471 6.15079 23.9877 5.48407 23.9877C4.81735 23.9877 4.2768 23.4471 4.2768 22.7803V19.3078C4.2768 18.6409 4.81735 18.1003 5.48407 18.1003C6.15079 18.1003 6.69133 18.641 6.69133 19.3078V22.7803ZM11.3028 25.3168C11.3028 25.9837 10.7623 26.5243 10.0956 26.5243C9.42883 26.5243 8.88829 25.9836 8.88829 25.3168V16.7712C8.88829 16.1043 9.42883 15.5638 10.0956 15.5638C10.7623 15.5638 11.3028 16.1044 11.3028 16.7712V25.3168ZM15.9143 22.7803C15.9143 23.4471 15.3738 23.9877 14.707 23.9877C14.0403 23.9877 13.4998 23.4471 13.4998 22.7803V19.3078C13.4998 18.6409 14.0403 18.1003 14.707 18.1003C15.3738 18.1003 15.9143 18.641 15.9143 19.3078V22.7803ZM20.5257 24.1184C20.5257 24.7853 19.9852 25.3258 19.3184 25.3258C18.6517 25.3258 18.1112 24.7852 18.1112 24.1184V17.9696C18.1112 17.3027 18.6517 16.7621 19.3184 16.7621C19.9852 16.7621 20.5257 17.3028 20.5257 17.9696V24.1184ZM25.1371 21.8185C25.1371 22.4853 24.5966 23.0259 23.9299 23.0259C23.2631 23.0259 22.7226 22.4853 22.7226 21.8185V20.2695C22.7226 19.6026 23.2631 19.0621 23.9299 19.0621C24.5966 19.0621 25.1371 19.6027 25.1371 20.2695V21.8185Z" fill="black"/>
<path d="M37.9258 23.107C37.8405 22.8627 37.8665 22.5935 37.9971 22.3701C39.2698 20.1932 40 17.6604 40 14.9566C40 6.83277 33.4155 0.24707 25.293 0.24707C21.5413 0.24707 18.1354 1.63465 15.5442 3.93957C24.9692 4.39371 31.8679 12.2921 31.8285 21.0438C31.8327 23.7732 31.1771 26.475 29.912 28.9225C30.8234 28.6166 31.7019 28.2289 32.5065 27.7768C32.6889 27.6743 32.902 27.6414 33.1073 27.6819L38.4834 28.7448C39.1544 28.8775 39.7157 28.2308 39.4901 27.585L37.9258 23.107Z" fill="black"/>
</svg>
