<svg width="40" height="40" viewBox="0 0 40 40" fill="none" xmlns="http://www.w3.org/2000/svg">
<g clip-path="url(#clip0_8059_22)">
<path d="M0 4.44427V18.8889H18.8889V0H4.44427C1.98975 0 0 1.98975 0 4.44427ZM6.11115 8.33344H8.33344V6.11115C8.33344 5.49744 8.83087 5 9.44458 5C10.0583 5 10.5557 5.49744 10.5557 6.11115V8.33344H12.778C13.3914 8.33344 13.8892 8.83087 13.8892 9.44458C13.8892 10.0583 13.3917 10.5557 12.778 10.5557H10.5557V12.778C10.5557 13.3914 10.0583 13.8892 9.44458 13.8892C8.83087 13.8892 8.33344 13.3917 8.33344 12.778V10.5557H6.11115C5.49744 10.5557 5 10.0583 5 9.44458C5 8.83087 5.49744 8.33344 6.11115 8.33344Z" fill="black"/>
<path d="M35.5557 0H21.1111V18.8889H40V4.44427C40 1.98975 38.0103 0 35.5557 0ZM33.8889 10.5557H27.2223C26.6086 10.5557 26.1111 10.0583 26.1111 9.44427C26.1111 8.83057 26.6086 8.33313 27.2223 8.33313H33.8889C34.5026 8.33313 35 8.83057 35 9.44427C35 10.0583 34.5026 10.5557 33.8889 10.5557Z" fill="black"/>
<path d="M0 35.5559C0 38.0104 1.98975 40.0002 4.44427 40.0002H18.8889V21.1113H0V35.5559ZM6.30219 28.9846C5.87585 28.543 5.88806 27.8398 6.32935 27.4135C6.75995 26.9976 7.44263 26.9976 7.87323 27.4135L9.44458 28.9846L11.0156 27.4135C11.4572 26.9872 12.1606 26.9994 12.587 27.4407C13.0026 27.8713 13.0026 28.554 12.587 28.9846L11.0156 30.5559L12.587 32.127C13.0283 32.5533 13.0405 33.2567 12.6141 33.698C12.1878 34.1396 11.4844 34.1518 11.0431 33.7255C11.0336 33.7166 11.0248 33.7075 11.0156 33.698L9.44458 32.127L7.87323 33.698C7.43195 34.1246 6.72852 34.1124 6.30219 33.6708C5.88623 33.2402 5.88623 32.5576 6.30219 32.127L7.87323 30.5559L6.30219 28.9846Z" fill="black"/>
<path d="M21.1111 40.0002H35.5557C38.0103 40.0002 40 38.0104 40 35.5559V21.1113H21.1111V40.0002ZM27.2223 27.2225H33.8889C34.5026 27.2225 35 27.7199 35 28.3336C35 28.9473 34.5026 29.4448 33.8889 29.4448H27.2223C26.6086 29.4448 26.1111 28.9473 26.1111 28.3336C26.1111 27.7199 26.6086 27.2225 27.2223 27.2225ZM27.2223 31.6667H33.8889C34.5026 31.6667 35 32.1642 35 32.7779C35 33.3916 34.5026 33.889 33.8889 33.889H27.2223C26.6086 33.889 26.1111 33.3916 26.1111 32.7779C26.1111 32.1642 26.6086 31.6667 27.2223 31.6667Z" fill="black"/>
</g>
<defs>
<clipPath id="clip0_8059_22">
<rect width="40" height="40" fill="white"/>
</clipPath>
</defs>
</svg>
