<svg width="36" height="38" viewBox="0 0 36 38" fill="none" xmlns="http://www.w3.org/2000/svg">
<path d="M34.9799 29.2744L24.8367 12.9834C24.5216 12.5109 24.3642 11.9334 24.3642 11.4084V2.73527H25.4142C26.1492 2.73527 26.7792 2.15777 26.7792 1.37026C26.7792 0.635238 26.1492 0 25.4142 0H10.5408C9.80574 0 9.1757 0.577495 9.1757 1.37026C9.1757 2.10528 9.80574 2.73527 10.5408 2.73527H11.5908V11.3559C11.5908 11.9334 11.4333 12.4584 11.1183 12.9309L1.02758 29.2744C-0.0748571 31.0646 -0.127409 33.2172 0.870117 35.0547C1.92013 36.8975 3.76291 38 5.86294 38H30.092C32.1973 38 34.0873 36.8975 35.0848 35.0547C36.1348 33.2697 36.0823 31.1172 34.9799 29.2744ZM12.226 29.3846C11.1235 29.3846 10.231 28.4921 10.231 27.3843C10.231 26.2818 11.1235 25.3893 12.226 25.3893C13.3285 25.3893 14.2211 26.2818 14.2211 27.3843C14.2211 28.4921 13.3285 29.3846 12.226 29.3846ZM21.1564 34.0099C19.8807 34.0099 18.8463 32.9757 18.8463 31.6947C18.8463 30.4189 19.8807 29.3846 21.1564 29.3846C22.4374 29.3846 23.4716 30.4189 23.4716 31.6947C23.4716 32.9757 22.4374 34.0099 21.1564 34.0099ZM19.1876 22.9218C19.1876 22.0188 19.9174 21.289 20.8151 21.289C21.7182 21.289 22.4479 22.0188 22.4479 22.9218C22.4479 23.8196 21.7182 24.5493 20.8151 24.5493C19.9174 24.5493 19.1876 23.8196 19.1876 22.9218ZM20.0538 19.1837C16.8461 17.9237 13.7486 17.8187 10.9082 18.5537L13.486 14.4009C14.0635 13.5084 14.326 12.4584 14.326 11.3559V2.73527H21.6814V11.3559C21.6814 12.4059 22.0016 13.4559 22.5266 14.4009L26.1492 20.2338C24.1542 20.2863 22.1067 19.9713 20.0538 19.1837Z" fill="black"/>
</svg>
