<svg width="16" height="16" viewBox="0 0 16 16" fill="none" xmlns="http://www.w3.org/2000/svg">
<path fill-rule="evenodd" clip-rule="evenodd" d="M6.0999 2.30772C5.09208 2.30772 4.12553 2.70807 3.4129 3.42071C2.70026 4.13335 2.2999 5.0999 2.2999 6.10772C2.2999 7.11554 2.70026 8.08209 3.4129 8.79472C4.12553 9.50736 5.09208 9.90772 6.0999 9.90772C7.10773 9.90772 8.07427 9.50736 8.78691 8.79472C9.49955 8.08209 9.8999 7.11554 9.8999 6.10772C9.8999 5.0999 9.49955 4.13335 8.78691 3.42071C8.07427 2.70807 7.10773 2.30772 6.0999 2.30772ZM0.399902 6.10772C0.400363 5.21091 0.612427 4.32686 1.01886 3.52743C1.42529 2.728 2.01462 2.03576 2.73894 1.50696C3.46326 0.978161 4.30214 0.627734 5.18738 0.484162C6.07263 0.340591 6.97926 0.407926 7.83358 0.680695C8.6879 0.953464 9.46581 1.42397 10.1041 2.05397C10.7423 2.68396 11.2229 3.45567 11.5068 4.30637C11.7907 5.15707 11.8698 6.06274 11.7378 6.94978C11.6058 7.83682 11.2663 8.68019 10.747 9.41134L15.322 13.9872C15.4926 14.1668 15.5863 14.406 15.583 14.6537C15.5798 14.9015 15.4799 15.1381 15.3047 15.3133C15.1294 15.4884 14.8927 15.5881 14.645 15.5912C14.3973 15.5943 14.1581 15.5005 13.9786 15.3298L9.40274 10.754C8.54999 11.3603 7.54683 11.7201 6.50315 11.7942C5.45947 11.8682 4.41556 11.6535 3.48579 11.1737C2.55601 10.6938 1.77625 9.9673 1.23194 9.07373C0.687628 8.18016 0.399769 7.15402 0.399902 6.10772Z" fill="black"/>
</svg>
